<?xml version="1.0" encoding="UTF-8"?>
<svg width="50px" height="54px" viewBox="0 0 50 54" version="1.1" xmlns="http://www.w3.org/2000/svg" xmlns:xlink="http://www.w3.org/1999/xlink">
    <!-- Generator: sketchtool 51.3 (57544) - http://www.bohemiancoding.com/sketch -->
    <title>8D8F1CCB-DB25-4058-89EF-274F17C99A02</title>
    <desc>Created with sketchtool.</desc>
    <defs></defs>
    <g id="Styles" stroke="none" stroke-width="1" fill="none" fill-rule="evenodd">
        <g transform="translate(-379.000000, -2751.000000)" fill-rule="nonzero" id="Group-2">
            <g transform="translate(360.000000, 2522.000000)">
                <g id="009-photography" transform="translate(19.000000, 229.000000)">
                    <circle id="Oval" fill="#28A08A" cx="29" cy="40" r="14"></circle>
                    <path d="M45.1171875,11.5234375 L28.9474487,11.5234375 C27.9987335,11.5234375 27.10495,11.9853974 26.5563965,12.7597809 L22.3945617,18.6359405 C22.2114563,18.8941955 21.9135284,19.0479278 21.59729,19.0479278 L20.9800721,19.0479278 L20.9800721,17.4255371 C20.9800721,16.165924 19.9550629,15.1409149 18.6950684,15.1409149 L14.2475128,15.1409149 C12.9878998,15.1409149 11.9628906,16.165924 11.9628906,17.4255371 L11.9628906,19.0479278 L9.1796875,19.0479278 L9.1796875,18.0706024 C9.1796875,16.4550781 7.86552432,15.1409149 6.25,15.1409149 C4.63447568,15.1409149 3.3203125,16.4550781 3.3203125,18.0706024 L3.3203125,19.0479278 L2.9296875,19.0479278 C1.31416318,19.0479278 0,20.3624726 0,21.9776153 L0,45.1171875 C0,47.8096008 2.19039922,50 4.8828125,50 L47.0703125,50 C48.6858368,50 50,48.6858368 50,47.0703125 L50,16.40625 C50,13.7138367 47.8096008,11.5234375 45.1171875,11.5234375 Z M13.9160156,17.4255371 C13.9160156,17.2428131 14.0647889,17.0940399 14.2475128,17.0940399 L18.6950684,17.0940399 C18.8777924,17.0940399 19.0269471,17.2428131 19.0269471,17.4255371 L19.0269471,19.0471649 L13.9160156,19.0471649 L13.9160156,17.4255371 Z M5.2734375,18.0706024 C5.2734375,17.5319672 5.71136475,17.0940399 6.25,17.0940399 C6.78863525,17.0940399 7.2265625,17.5319672 7.2265625,18.0706024 L7.2265625,19.0471649 L5.2734375,19.0471649 L5.2734375,18.0706024 Z M48.046875,41.40625 L42.0211792,41.40625 C42.6460266,39.5645142 42.96875,37.6228332 42.96875,35.6445312 C42.96875,32.8933716 42.3278809,30.1830292 41.1262512,27.734375 L48.046875,27.734375 L48.046875,41.40625 Z M1.953125,27.734375 L8.87413027,27.734375 C7.67250059,30.1837921 7.03125,32.8952789 7.03125,35.6445312 C7.03125,37.6232147 7.35397344,39.5645142 7.9788208,41.40625 L1.953125,41.40625 L1.953125,27.734375 Z M36.8728638,38.0306244 L30.8734894,32.0316314 C30.6903839,31.848526 30.4420471,31.7455292 30.1830292,31.7455292 C29.9240112,31.7455292 29.6756744,31.848526 29.4925689,32.0316314 L22.687912,38.8362885 L19.6220398,35.7700348 C19.2405701,35.3889465 18.6222076,35.3889465 18.2407379,35.7700348 L13.7893677,40.2214051 C13.2106781,38.8084412 12.890625,37.2634888 12.890625,35.6445312 C12.890625,28.9672852 18.3227539,23.5351562 25,23.5351562 C31.6772461,23.5351562 37.109375,28.9672852 37.109375,35.6445312 C37.109375,36.4612579 37.0277404,37.2589111 36.8728638,38.0306244 Z M18.9311981,37.8417969 L26.3683319,45.2789307 C26.5590668,45.4696655 26.8089295,45.565033 27.0587921,45.565033 C27.3086548,45.565033 27.5585175,45.4696655 27.7492523,45.2789307 C28.1307221,44.8974609 28.1307221,44.2790985 27.7492523,43.8976288 L24.0688324,40.2172089 L30.1830292,34.1030121 L36.2365723,40.1569366 C34.4436646,44.6056366 30.0830841,47.7539062 25,47.7539062 C20.672226,47.7539062 16.8678283,45.4711914 14.7262573,42.0471191 L18.9311981,37.8417969 Z M47.0703125,48.046875 L31.6226959,48.046875 C36.0466004,45.6748963 39.0625,41.0057068 39.0625,35.6445312 C39.0625,27.8903961 32.7541352,21.5820312 25,21.5820312 C17.2458648,21.5820312 10.9375,27.8903961 10.9375,35.6445312 C10.9375,41.0057068 13.9533996,45.6748963 18.3773041,48.046875 L4.8828125,48.046875 C3.26728818,48.046875 1.953125,46.7327118 1.953125,45.1171875 L1.953125,43.359375 L8.77227783,43.359375 C9.15565488,44.1619873 9.60044863,44.9394227 10.1047516,45.6855773 C10.2935791,45.9644317 10.6014252,46.1151123 10.9146118,46.1151123 C11.1030578,46.1151123 11.2930298,46.0605621 11.4608765,45.9472656 C11.9075775,45.6451416 12.0250702,45.0382232 11.7229462,44.5915223 C11.1682892,43.7713623 10.6948853,42.9084777 10.3050232,42.0131684 C10.3012085,42.0028687 10.2966309,41.9933319 10.2920532,41.9834137 C9.43145752,39.994812 8.984375,37.8456115 8.984375,35.6445312 C8.984375,32.0133209 10.2386475,28.4545898 12.5156402,25.623703 C12.8536225,25.2037049 12.7868652,24.5887756 12.3668671,24.2507935 C11.9464874,23.9128113 11.3319396,23.979187 10.9935761,24.3995666 C10.6357574,24.8443604 10.3012085,25.3063202 9.98878477,25.78125 L1.953125,25.78125 L1.953125,21.9776153 C1.953125,21.4389801 2.39105225,21.0010528 2.9296875,21.0010528 L21.59729,21.0010528 C22.5460053,21.0010528 23.4397889,20.539093 23.9879608,19.7647095 L28.150177,13.8885498 C28.332901,13.6302948 28.6308289,13.4765625 28.9470673,13.4765625 L45.1171875,13.4765625 C46.7327118,13.4765625 48.046875,14.7907257 48.046875,16.40625 L48.046875,25.78125 L40.0112152,25.78125 C39.6778106,25.2738953 39.3188477,24.7821808 38.9331817,24.3091583 C38.5925293,23.8910675 37.9772187,23.8285064 37.5591278,24.169159 C37.141037,24.5098114 37.078476,25.1251221 37.4191284,25.5432129 C39.7384644,28.3889771 41.015625,31.9763184 41.015625,35.6445312 C41.015625,37.8501893 40.5662537,40.0039673 39.7018433,41.9963837 C39.7003174,41.9990539 39.6991729,42.0021057 39.6980285,42.004776 C39.3115997,42.8936005 38.8431549,43.7507629 38.2946015,44.5659638 C37.9932403,45.0130463 38.1118774,45.6199646 38.55896,45.9213257 C38.7264252,46.0338593 38.9160156,46.0880279 39.1036987,46.0880279 C39.4176483,46.0880279 39.7258759,45.9365845 39.9147033,45.6565857 C40.4109955,44.9195861 40.8489228,44.1516876 41.2273407,43.359375 L48.046875,43.359375 L48.046875,47.0703125 C48.046875,47.6089478 47.6089478,48.046875 47.0703125,48.046875 Z" id="Shape" fill="#000000"></path>
                    <path d="M45.4753876,18.0706024 C45.4753876,16.4550781 44.1612244,15.1409149 42.5457001,15.1409149 L33.7890625,15.1409149 C32.1735382,15.1409149 30.859375,16.4550781 30.859375,18.0706024 C30.859375,19.6861268 32.1735382,21.0002899 33.7890625,21.0002899 L42.5457001,21.0002899 C44.1612244,21.0002899 45.4753876,19.6857452 45.4753876,18.0706024 Z M43.5222626,18.0706024 C43.5222626,18.6088562 43.0839539,19.0471649 42.5457001,19.0471649 L39.143753,19.0471649 L39.143753,17.0940399 L42.5457001,17.0940399 C43.0839539,17.0940399 43.5222626,17.5319672 43.5222626,18.0706024 Z M32.8125,18.0706024 C32.8125,17.5319672 33.2504272,17.0940399 33.7890625,17.0940399 L37.190628,17.0940399 L37.190628,19.0471649 L33.7890625,19.0471649 C33.2504272,19.0471649 32.8125,18.6088562 32.8125,18.0706024 Z" id="Shape" fill="#000000"></path>
                    <path d="M23.6652374,26.5300751 C22.0497131,26.5300751 20.7355499,27.8442383 20.7355499,29.4597626 C20.7355499,31.0752869 22.0497131,32.3894501 23.6652374,32.3894501 C25.2807617,32.3894501 26.5949249,31.0752869 26.5949249,29.4597626 C26.5949249,27.8442383 25.2807617,26.5300751 23.6652374,26.5300751 Z M23.6652374,30.4363251 C23.1269836,30.4363251 22.6886749,29.9980164 22.6886749,29.4597626 C22.6886749,28.9211273 23.1269836,28.4832001 23.6652374,28.4832001 C24.2038727,28.4832001 24.6417999,28.9211273 24.6417999,29.4597626 C24.6417999,29.9980164 24.2038727,30.4363251 23.6652374,30.4363251 Z" id="Shape" fill="#000000"></path>
                    <path d="M38.0847931,6.6730499 C38.6241913,6.6730499 39.0613556,6.23588564 39.0613556,5.6964874 L39.0613556,0.9765625 C39.0613556,0.437164258 38.6241913,0 38.0847931,0 C37.5457764,0 37.1082306,0.437164258 37.1082306,0.9765625 L37.1082306,5.6964874 C37.1082306,6.23588564 37.5457764,6.6730499 38.0847931,6.6730499 Z" id="Shape" fill="#000000"></path>
                    <path d="M38.0847931,8.10546875 C37.828064,8.10546875 37.5759125,8.20999141 37.3947144,8.39157109 C37.2127533,8.57315059 37.1082306,8.82530215 37.1082306,9.08203125 C37.1082306,9.33876035 37.2127533,9.59091191 37.3947144,9.77249141 C37.5759125,9.95407109 37.828064,10.0585938 38.0847931,10.0585938 C38.3419037,10.0585938 38.5936737,9.95407109 38.7752533,9.77249141 C38.9568329,9.59091191 39.0613556,9.33876035 39.0613556,9.08203125 C39.0613556,8.82530215 38.9572144,8.57315059 38.7752533,8.39157109 C38.5936737,8.20999141 38.3419037,8.10546875 38.0847931,8.10546875 Z" id="Shape" fill="#000000"></path>
                    <path d="M32.2940826,8.84895322 C32.4848175,9.03968809 32.7346802,9.13505557 32.9845429,9.13505557 C33.2344055,9.13505557 33.4842682,9.03968809 33.675003,8.84895322 C34.0564728,8.4674835 34.0564728,7.84912109 33.675003,7.46765137 L30.3974151,4.19006348 C30.0159454,3.8089752 29.3979645,3.8089752 29.0164947,4.19006348 C28.635025,4.5715332 28.635025,5.18989561 29.0164947,5.57136533 L32.2940826,8.84895322 Z" id="Shape" fill="#000000"></path>
                    <path d="M43.2456971,9.04808047 C43.4959412,9.04808047 43.7458038,8.95271299 43.9365387,8.76197813 L47.1229553,5.57327266 C47.504425,5.19180293 47.5040436,4.57382207 47.1225738,4.19235234 C46.7411041,3.81126406 46.1231231,3.81126406 45.7416534,4.19273379 L42.5548554,7.38105771 C42.1737671,7.76252744 42.1737671,8.38088984 42.5552368,8.76235957 C42.7463531,8.95271299 42.9958344,9.04808047 43.2456971,9.04808047 Z" id="Shape" fill="#000000"></path>
                </g>
            </g>
        </g>
    </g>
</svg>