<?xml version="1.0" encoding="UTF-8"?>
<svg width="50px" height="50px" viewBox="0 0 50 50" version="1.1" xmlns="http://www.w3.org/2000/svg" xmlns:xlink="http://www.w3.org/1999/xlink">
    <!-- Generator: sketchtool 51.3 (57544) - http://www.bohemiancoding.com/sketch -->
    <title>75383E88-D747-45F2-B5B8-E7C16BF7299D</title>
    <desc>Created with sketchtool.</desc>
    <defs></defs>
    <g id="Styles" stroke="none" stroke-width="1" fill="none" fill-rule="evenodd">
        <g transform="translate(-154.000000, -2571.000000)" fill-rule="nonzero" id="Group">
            <g transform="translate(123.000000, 2522.000000)">
                <g id="013-night-cream" transform="translate(31.000000, 49.000000)">
                    <path d="M49.9864558,33.0752124 C49.9864558,39.6761637 44.5744935,45.0464938 37.922314,45.0464938 L18.077686,45.0464938 C11.4255065,45.0468753 6.0135443,39.6761637 6.0135443,33.0752124 L6.0135443,29.012179 L49.9864558,29.012179 L49.9864558,33.0752124 Z" id="Path" fill="#28A08A"></path>
                    <path d="M33.6538462,18.6813187 C33.5911208,18.6813187 33.5276442,18.6745599 33.4652944,18.6617932 C33.4036959,18.649402 33.3439754,18.6313784 33.2853815,18.607347 C33.2279146,18.5833156 33.1719501,18.5532763 33.1201171,18.5187311 C33.0671574,18.484186 33.0183293,18.4436329 32.9728815,18.3997004 C32.9289362,18.3553925 32.8894982,18.3062032 32.8538161,18.253259 C32.8192608,18.2014412 32.7892127,18.1458686 32.7651742,18.0872919 C32.7411358,18.0294664 32.7231069,17.9690124 32.7103365,17.9074318 C32.6979417,17.8458513 32.6923077,17.7823934 32.6923077,17.7200618 C32.6923077,17.6573548 32.6979417,17.5938969 32.7103365,17.5315653 C32.7231069,17.4711113 32.7411358,17.4102818 32.7651742,17.3517052 C32.7892127,17.294255 32.8192608,17.2383069 32.8538161,17.1864892 C32.8894982,17.133545 32.9289362,17.0847311 32.9728815,17.0404232 C33.0183293,16.9949887 33.0671574,16.9555622 33.1201171,16.9202661 C33.1719501,16.8857209 33.2279146,16.8556816 33.2853815,16.8316502 C33.3432241,16.8076187 33.4036959,16.7895952 33.4652944,16.7768285 C33.5892428,16.7520462 33.7173227,16.7520462 33.841271,16.7768285 C33.9028696,16.7895952 33.9633413,16.8076187 34.0211838,16.8316502 C34.0786508,16.8556816 34.1346154,16.8857209 34.1875751,16.9202661 C34.2394081,16.9555622 34.289363,16.9949887 34.3336838,17.0404232 C34.3776292,17.0847311 34.418194,17.133545 34.4527494,17.1864892 C34.4873046,17.2383069 34.5173527,17.294255 34.5413912,17.3517052 C34.5654296,17.4102818 34.5834585,17.4711113 34.5962289,17.5315653 C34.6086237,17.5938969 34.6153846,17.6573548 34.6153846,17.7200618 C34.6153846,17.7823934 34.6086238,17.8458513 34.5962289,17.9074318 C34.5834585,17.9690124 34.5654296,18.0294664 34.5413912,18.0872919 C34.5173527,18.1458686 34.4873046,18.2014412 34.4527494,18.253259 C34.418194,18.3062032 34.3776292,18.3553925 34.3336838,18.3997004 C34.289363,18.4436329 34.2394081,18.484186 34.1875751,18.5187311 C34.1346154,18.5532763 34.0786508,18.5833156 34.0211838,18.607347 C33.9633413,18.6313784 33.9028696,18.649402 33.841271,18.6617932 C33.7796725,18.6741843 33.7161959,18.6813187 33.6538462,18.6813187 Z" id="Shape" fill="#000000"></path>
                    <path d="M49.0188639,24.3373905 L46.4035229,24.3373905 C46.7457707,23.6438786 46.9289673,22.8736913 46.9289673,22.0771826 L46.9289673,21.9631233 C46.9289673,19.4149059 45.0521612,17.2939345 42.5997041,16.8926284 C43.3317237,16.0060928 43.7713186,14.8727464 43.7713186,13.639455 C43.7713186,10.8058982 41.451085,8.50105839 38.5996582,8.50105839 L27.8680985,8.50105839 C27.2364921,8.17871653 26.660458,7.76100721 26.1526434,7.25670435 C24.5759269,5.69077136 23.8895149,3.41072704 24.3168457,1.15776718 C24.3770169,0.840765855 24.2758372,0.514609259 24.04665,0.286490441 C23.8178459,0.0579900813 23.4901618,-0.042717913 23.1716758,0.0167913564 C21.4201945,0.344473832 19.7679767,1.20735819 18.5197108,2.44713468 C16.8832065,4.07257695 15.9710565,6.23360263 15.9365635,8.50105839 L11.4003418,8.50105839 C8.54853172,8.50105839 6.22829814,10.8062797 6.22829814,13.639455 C6.22829814,14.8727464 6.66789314,16.0060928 7.39991262,16.8930098 C4.94745554,17.2939345 3.07064947,19.4149059 3.07064947,21.9631233 L3.07064947,22.0771826 C3.07064947,22.8740729 3.25384593,23.6438786 3.59609388,24.337772 L0.981136125,24.337772 C0.43921167,24.337772 0,24.7749362 0,25.3143344 L0,31.035998 C0,31.5750147 0.43921167,32.0125604 0.981136125,32.0125604 L1.05127205,32.0125604 L1.05127205,36.0752124 C1.05127205,43.7530526 7.34319069,50 15.077686,50 L34.922314,50 C42.6564261,50 48.948728,43.753434 48.948728,36.0752124 L48.948728,32.012179 L49.0188639,32.012179 C49.5607883,32.012179 50,31.5750147 50,31.0356166 L50,25.3139529 C50,24.7749362 49.560405,24.3373905 49.0188639,24.3373905 Z M5.03292172,22.0771826 L5.03292172,21.9631233 C5.03292172,20.2064554 6.47281561,18.7778514 8.24269325,18.7778514 L29.6510069,18.7778514 C30.1929312,18.7778514 30.632143,18.3406872 30.632143,17.8012891 C30.632143,17.261891 30.1929312,16.8247267 29.6510069,16.8247267 L11.4114563,16.8247267 C11.4076237,16.8247267 11.4037912,16.8247267 11.4003418,16.8247267 C9.63046428,16.8247267 8.19057039,15.3957413 8.19057039,13.639455 C8.19057039,11.8831686 9.63046428,10.4541831 11.4003418,10.4541831 L16.9621572,10.4541831 C17.2404014,10.4541831 17.5059979,10.336309 17.6918772,10.1303154 C17.8781398,9.92394032 17.9674385,9.64890071 17.9375446,9.37347956 C17.7156392,7.31239888 18.433095,5.29213547 19.9055656,3.82958079 C20.5613172,3.17841203 21.3607898,2.6607577 22.2315482,2.31438324 C22.1878569,4.68483575 23.0869762,6.97136504 24.7667886,8.63915046 C25.4846276,9.35211726 26.3097784,9.93118817 27.2196289,10.3599602 C27.3507025,10.4221397 27.4944237,10.4538017 27.6396778,10.4538017 L38.5996582,10.4538017 C40.3695357,10.4538017 41.8090464,11.8827871 41.8090464,13.6390734 C41.8090464,15.3957413 40.3695357,16.8243453 38.5996582,16.8243453 C38.0577337,16.8243453 37.6185221,17.2615095 37.6185221,17.8009076 C37.6185221,18.3403058 38.0577337,18.77747 38.5996582,18.77747 L41.7569235,18.77747 C43.5268012,18.77747 44.966695,20.2064554 44.966695,21.9627418 L44.966695,22.0768012 C44.966695,22.9335821 44.6244472,23.7411534 44.0173692,24.3373905 L5.98224755,24.3373905 C5.3755528,23.7411534 5.03292172,22.9335821 5.03292172,22.0771826 Z M1.96227225,26.2905153 L48.0377277,26.2905153 L48.0377277,30.0590542 L1.96227225,30.0590542 L1.96227225,26.2905153 Z M46.9864558,36.0752124 C46.9864558,42.6761637 41.5744935,48.0464938 34.922314,48.0464938 L15.077686,48.0464938 C8.42550648,48.0468753 3.0135443,42.6761637 3.0135443,36.0752124 L3.0135443,32.012179 L46.9864558,32.012179 L46.9864558,36.0752124 Z" id="Shape" fill="#000000"></path>
                    <path d="M30.0936308,39.212187 C30.1776106,39.212187 30.2634904,39.2010397 30.3489903,39.1775923 L31.4327483,38.8800785 C31.6219879,39.1768236 31.8488475,39.4474304 32.106107,39.6845958 L31.4460482,40.3499658 C31.0656689,40.7339662 31.064909,41.3570539 31.4441482,41.741823 C31.6345278,41.9347841 31.8838074,42.0308803 32.1330869,42.0308803 C32.3816065,42.0308803 32.6301261,41.9351686 32.8201256,41.7437449 L33.9133836,40.6409451 C34.1999031,40.7066749 34.4978225,40.7416538 34.803722,40.7416538 L34.8789618,40.7416538 L34.8789618,42.4225684 C34.8789618,42.9660884 35.3144411,43.4065934 35.85176,43.4065934 C36.389079,43.4065934 36.8245582,42.9660884 36.8245582,42.4225684 L36.8245582,40.7416538 L36.899418,40.7416538 C37.2053175,40.7416538 37.5036169,40.7066749 37.7897564,40.6409451 L38.8833944,41.7437449 C39.073014,41.9351686 39.3215336,42.0308803 39.570053,42.0308803 C39.8197127,42.0308803 40.0689922,41.9343998 40.2589917,41.741823 C40.6382311,41.3570539 40.6374711,40.7339662 40.2570918,40.3499658 L39.597033,39.6845958 C39.8546725,39.4474304 40.0811522,39.1768236 40.2703918,38.8800785 L41.3545297,39.1775923 C41.4396496,39.2010397 41.5255295,39.212187 41.6098892,39.212187 C42.0381485,39.212187 42.4306877,38.9238984 42.5481075,38.4856997 C42.6890872,37.9613989 42.3828079,37.4205696 41.8641087,37.2783473 L40.8932106,37.0115842 C40.9011906,36.9081847 40.9049906,36.8036321 40.9049906,36.6983107 C40.9049906,36.1547906 40.4695114,35.7142857 39.9321924,35.7142857 C39.3948734,35.7142857 38.9593943,36.1547906 38.9593943,36.6983107 C38.9593943,37.8426241 38.035236,38.7736039 36.899418,38.7736039 L34.803722,38.7736039 C33.6679041,38.7736039 32.7437458,37.8426241 32.7437458,36.6983107 C32.7437458,36.1547906 32.3082666,35.7142857 31.7709476,35.7142857 C31.2336286,35.7142857 30.7981494,36.1547906 30.7981494,36.6983107 C30.7981494,36.8036321 30.8023294,36.9081847 30.8099294,37.0115842 L29.8390312,37.2783473 C29.3207122,37.4205696 29.0144328,37.9613989 29.1550325,38.4856997 C29.2728323,38.9238984 29.6649916,39.212187 30.0936308,39.212187 Z" id="Shape" fill="#000000"></path>
                    <path d="M8.39034538,39.212187 C8.47432617,39.212187 8.56020706,39.2010397 8.64570787,39.1775923 L9.72947846,38.8800785 C9.91872036,39.1768236 10.1455826,39.4474304 10.402845,39.6845958 L9.74277862,40.3499658 C9.36239493,40.7339662 9.36163487,41.3570539 9.74087853,41.741823 C9.93126046,41.9343998 10.1805429,42.0308803 10.4298253,42.0308803 C10.6783477,42.0308803 10.9268702,41.9351686 11.1168721,41.7437449 L12.2101427,40.6409451 C12.4966656,40.7066749 12.7945885,40.7416538 13.1004914,40.7416538 L13.1753521,40.7416538 L13.1753521,42.4225684 C13.1753521,42.9660884 13.6112164,43.4065934 14.1481617,43.4065934 C14.685487,43.4065934 15.1209712,42.9660884 15.1209712,42.4225684 L15.1209712,40.7416538 L15.1962119,40.7416538 C15.5021149,40.7416538 15.8000378,40.7066749 16.0865606,40.6409451 L17.1798312,41.7437449 C17.3698332,41.9351686 17.6183556,42.0308803 17.866878,42.0308803 C18.1161604,42.0308803 18.3658229,41.9343998 18.5558248,41.741823 C18.9350684,41.3570539 18.9343085,40.7339662 18.5539247,40.3499658 L17.8938582,39.6845958 C18.1515008,39.4474304 18.377983,39.1768236 18.5672248,38.8800785 L19.6513754,39.1775923 C19.7364962,39.2010397 19.8223771,39.212187 19.9067379,39.212187 C20.3350021,39.212187 20.7271659,38.9238984 20.8449671,38.4856997 C20.9855685,37.9613989 20.6792855,37.4205696 20.1609605,37.2783473 L19.1900509,37.0115842 C19.197651,36.9081847 19.2018311,36.8036321 19.2018311,36.6983107 C19.2018311,36.1547906 18.7663468,35.7142857 18.2290216,35.7142857 C17.6916963,35.7142857 17.2562121,36.1547906 17.2562121,36.6983107 C17.2562121,37.8426241 16.332043,38.7736039 15.1962119,38.7736039 L13.1004914,38.7736039 C11.9646604,38.7736039 11.0404913,37.8426241 11.0404913,36.6983107 C11.0404913,36.1547906 10.605007,35.7142857 10.0676818,35.7142857 C9.53035652,35.7142857 9.09487231,36.1547906 9.09487231,36.6983107 C9.09487231,36.8036321 9.09905228,36.9081847 9.10665235,37.0115842 L8.13574284,37.2783473 C7.61741787,37.4205696 7.31113483,37.9613989 7.45173615,38.4856997 C7.56953735,38.9238984 7.96170119,39.212187 8.39034538,39.212187 Z" id="Shape" fill="#000000"></path>
                </g>
            </g>
        </g>
    </g>
</svg>