<?xml version="1.0" encoding="UTF-8"?>
<svg width="53px" height="50px" viewBox="0 0 53 50" version="1.1" xmlns="http://www.w3.org/2000/svg" xmlns:xlink="http://www.w3.org/1999/xlink">
    <!-- Generator: sketchtool 51.3 (57544) - http://www.bohemiancoding.com/sketch -->
    <title>FA836D69-D658-4FDD-B6FF-7959AB59E57D</title>
    <desc>Created with sketchtool.</desc>
    <defs></defs>
    <g id="Styles" stroke="none" stroke-width="1" fill="none" fill-rule="evenodd">
        <g transform="translate(-827.000000, -2571.000000)" fill-rule="nonzero" id="Group-4">
            <g transform="translate(814.000000, 2522.000000)">
                <g id="011-coffee-cup" transform="translate(13.000000, 49.000000)">
                    <path d="M46.4218059,47.295386 C42.1485975,48.8608093 36.4473477,49.7228958 30.3683277,49.7228958 C24.2893077,49.7228958 18.5880579,48.8608093 14.3148495,47.295386 C10.4942636,45.8955037 8.21360781,44.0384736 8.21360781,42.3274591 C8.21360781,40.3154997 11.2689069,38.1842658 16.2013613,36.742786 L18.98766,38.2088847 C18.9907789,38.2101581 18.9935078,38.2110071 18.9966266,38.2127049 C20.2098576,39.5569824 21.621915,40.689877 23.1591161,41.5405029 C25.4058544,42.783758 27.8315367,43.414087 30.3683277,43.414087 C35.6111072,43.414087 40.2702727,40.642337 43.1754775,36.3747757 C46.0440357,37.0916954 48.4268338,38.0412215 50.0887887,39.1329429 C51.1994875,39.8625965 52.5234375,41.0094984 52.5234375,42.3274591 C52.5234375,44.0384736 50.2423918,45.8955037 46.4218059,47.295386 Z" id="Path" fill="#28A08A"></path>
                    <path d="M19.8570252,9.23118594 C19.4759369,9.61265566 19.4759369,10.2310181 19.8570252,10.6124878 C20.04776,10.8032227 20.2976227,10.89859 20.5474854,10.89859 C20.7977295,10.89859 21.0475922,10.8032227 21.2383271,10.6124878 C22.8519439,8.99848936 22.8519439,6.37245176 21.2383271,4.75883486 C20.3857422,3.90625 20.3857422,2.51960752 21.2383271,1.66702266 C21.6194152,1.28593447 21.6194152,0.66757207 21.2383271,0.286102344 C20.8568573,-0.0953673828 20.2384949,-0.0953673828 19.8570252,0.286102344 C18.2430268,1.90010068 18.2430268,4.52575684 19.8570252,6.13975527 C20.70961,6.99195859 20.70961,8.37898252 19.8570252,9.23118594 Z" id="Shape" fill="#000000"></path>
                    <path d="M25.8331299,9.23118594 C25.4520416,9.61265566 25.4520416,10.2310181 25.8331299,10.6124878 C26.0238647,10.8032227 26.2737274,10.89859 26.52359,10.89859 C26.7734527,10.89859 27.0236969,10.8032227 27.2144317,10.6124878 C28.8280487,8.99848936 28.8280487,6.37245176 27.2144317,4.75883486 C26.8013,4.34570312 26.5739441,3.79676816 26.5739441,3.21311953 C26.5739441,2.62908936 26.8013,2.08015439 27.2144317,1.66702266 C27.59552,1.28593447 27.59552,0.66757207 27.2144317,0.286102344 C26.832962,-0.0953673828 26.2145996,-0.0949859375 25.8331299,0.286102344 C25.0514984,1.06773379 24.6208191,2.10723877 24.6208191,3.21311953 C24.6208191,4.31861875 25.0514984,5.35812383 25.8331299,6.13975527 C26.6857147,6.99195859 26.6857147,8.37898252 25.8331299,9.23118594 Z" id="Shape" fill="#000000"></path>
                    <path d="M31.8092346,9.23118594 C31.4277648,9.61265566 31.4277648,10.2310181 31.8092346,10.6124878 C31.9999695,10.8032227 32.2498321,10.89859 32.4996948,10.89859 C32.7495575,10.89859 32.9998017,10.8032227 33.1901551,10.6124878 C34.8041534,8.99848936 34.8041534,6.37245176 33.1901551,4.75883486 C32.7774048,4.34570312 32.5500488,3.79676816 32.5500488,3.21311953 C32.5500488,2.62908936 32.7774048,2.08015439 33.1901551,1.66702266 C33.5716248,1.28593447 33.5716248,0.66757207 33.1901551,0.286102344 C32.8090668,-0.0953673828 32.1907043,-0.0949859375 31.8092346,0.286102344 C31.0276031,1.06773379 30.5969238,2.10723877 30.5969238,3.21311953 C30.5969238,4.31861875 31.0276031,5.35812383 31.8092346,6.13975527 C32.661438,6.99195859 32.661438,8.37898252 31.8092346,9.23118594 Z" id="Shape" fill="#000000"></path>
                    <path d="M40.0199891,34.3093872 C41.2548065,32.0774078 41.9589996,29.5127869 41.9589996,26.7864228 L41.9589996,14.0357971 C41.9589996,13.4967804 41.5218354,13.0592346 40.9824371,13.0592346 L11.7542267,13.0592346 C11.2148285,13.0592346 10.7776642,13.4967804 10.7776642,14.0357971 L10.7776642,17.388916 L7.95707705,17.388916 C3.56941221,17.388916 -2.84217094e-14,20.9583282 -2.84217094e-14,25.3459931 C-2.84217094e-14,28.3786773 1.76429746,31.1908722 4.49523926,32.510376 L9.91020205,35.1268769 C5.26351934,36.7088318 2.73704531,38.898468 2.73704531,41.4005279 C2.73704531,43.9250946 5.26161191,46.1090088 10.0376129,47.7161407 C14.414215,49.1889953 20.2140809,50 26.3683319,50 C32.5229645,50 38.3228302,49.1889953 42.6994324,47.7161407 C47.4754334,46.1090088 50,43.9250946 50,41.4005279 C50,38.4376525 46.3813781,35.8818055 40.0199891,34.3093872 Z M12.7307892,15.0123596 L40.0058746,15.0123596 L40.0058746,26.7864228 C40.0058746,34.305954 33.8882446,40.4239654 26.3683319,40.4239654 C22.0607758,40.4239654 18.0961609,38.4521484 15.4914855,35.0139618 C13.6856079,32.630539 12.7307892,29.7855377 12.7307892,26.7864228 L12.7307892,15.0123596 Z M1.953125,25.3459931 C1.953125,22.0355987 4.64630127,19.342041 7.95707705,19.342041 L10.7776642,19.342041 L10.7776642,26.7864228 C10.7776642,29.4559479 11.4398956,32.019043 12.707901,34.3097687 L5.34477236,30.7518006 C3.2844543,29.756546 1.953125,27.6344299 1.953125,25.3459931 Z M42.0764923,45.8652496 C37.8952026,47.27211 32.3165894,48.046875 26.3683319,48.046875 C20.4200744,48.046875 14.8414611,47.27211 10.6601715,45.8652496 C6.92176816,44.6071625 4.69017031,42.9382324 4.69017031,41.4005279 C4.69017031,39.5923614 7.67974854,37.677002 12.5061035,36.3815308 L15.2324677,37.6991271 C15.2355194,37.7002716 15.2381896,37.7010346 15.2412414,37.7025604 C16.4283752,38.910675 17.8100586,39.9288178 19.3141937,40.6932831 C21.5126037,41.8106079 23.8861084,42.3770904 26.3683319,42.3770904 C31.4983368,42.3770904 36.0572814,39.8860932 38.8999939,36.0507965 C41.7068481,36.6950988 44.0383911,37.5484467 45.6645966,38.5295868 C46.7514038,39.1853332 48.046875,40.2160645 48.046875,41.4005279 C48.046875,42.9382324 45.8148956,44.6071625 42.0764923,45.8652496 Z" id="Shape" fill="#000000"></path>
                    <path d="M26.3683319,37.5564575 L26.4350891,37.5560761 C26.9744873,37.5522613 27.4085998,37.1120453 27.4047852,36.5726471 C27.4009705,36.0359191 26.9645691,35.6033325 26.4286041,35.6033325 C26.4259338,35.6033325 26.423645,35.6033325 26.4213563,35.6033325 L26.3687134,35.6033325 C25.8293152,35.6033325 25.3921509,36.0404969 25.3921509,36.579895 C25.3921509,37.1192932 25.8289337,37.5564575 26.3683319,37.5564575 Z" id="Shape" fill="#000000"></path>
                    <path d="M29.9354553,36.8869781 C30.0537109,36.8869781 30.1738739,36.8652344 30.2909852,36.819458 C32.2864532,36.0389709 33.9897156,34.6931457 35.2172852,32.9273224 C36.4742279,31.1191559 37.1383667,28.9958954 37.1383667,26.7864228 C37.1383667,26.2470245 36.7012023,25.8098603 36.1618042,25.8098603 C35.6224061,25.8098603 35.1852417,26.2470245 35.1852417,26.7864228 C35.1852417,30.4439545 32.9849243,33.6685181 29.579544,35.0006104 C29.0771484,35.1970673 28.8291932,35.7635498 29.02565,36.2659454 C29.1763306,36.6512299 29.5452118,36.8869781 29.9354553,36.8869781 Z" id="Shape" fill="#000000"></path>
                </g>
            </g>
        </g>
    </g>
</svg>