<?xml version="1.0" encoding="UTF-8"?>
<svg width="52px" height="52px" viewBox="0 0 52 52" version="1.1" xmlns="http://www.w3.org/2000/svg" xmlns:xlink="http://www.w3.org/1999/xlink">
    <!-- Generator: sketchtool 51.3 (57544) - http://www.bohemiancoding.com/sketch -->
    <title>D7067DC4-2231-40B1-BE55-9A70144F4641</title>
    <desc>Created with sketchtool.</desc>
    <defs></defs>
    <g id="Styles" stroke="none" stroke-width="1" fill="none" fill-rule="evenodd">
        <g transform="translate(-153.000000, -2936.000000)" fill-rule="nonzero" id="Group">
            <g transform="translate(123.000000, 2522.000000)">
                <g id="guitar" transform="translate(30.000000, 414.000000)">
                    <path d="M39.4363736,26.1898221 C40.2675962,27.0210447 40.7257413,28.126544 40.7257413,29.3022336 C40.7257413,30.4676237 40.275607,31.5639676 39.4577359,32.3929014 L37.5675535,34.0500059 C36.7798185,34.7404661 35.9588956,35.3782834 35.1894712,35.9642209 C33.1077909,37.5488461 31.7306852,39.9688901 31.4110136,42.6037015 C31.1237668,44.9707211 30.1109648,47.0825375 28.4824705,48.7114133 C26.3969755,50.7969083 23.5317564,51.8600645 20.4166746,51.7090024 C17.2649717,51.5548887 14.2372465,50.1781644 11.8912076,47.8321256 C9.54516886,45.4864682 8.16844454,42.4583616 8.01433087,39.3066586 C7.86212442,36.1908139 8.92642491,33.3263578 11.0123014,31.2408627 C12.6278257,29.6249571 14.7220945,28.6144437 17.0677519,28.3188047 C19.7033262,27.9865446 22.132144,26.6285123 23.731265,24.5929899 C24.5457029,23.5565366 25.4188871,22.455615 26.3492918,21.3894071 L27.3308134,20.2648343 C29.048953,18.5711087 31.8249082,18.5783567 33.5338926,20.2869596 L34.5299101,21.2833585 L38.4399747,25.1934232 L39.4363736,26.1898221 Z" id="Path" fill="#28A08A"></path>
                    <path d="M46.9318695,33.3400269 C46.6968842,33.0207367 46.2929077,32.8746338 45.9083862,32.9696197 C45.5234833,33.0646057 45.2339478,33.381607 45.1744385,33.7733765 L43.8644715,42.3812408 C43.297226,41.8960113 42.5926514,41.5572662 41.8018646,41.4371033 C39.5450897,41.0926361 37.4290771,42.650177 37.0853729,44.9077148 C36.7420502,47.1644897 38.2988281,49.2805023 40.5559845,49.6238251 C40.7661743,49.6558686 40.9748383,49.6711273 41.1815948,49.6711273 C43.1774444,49.6711273 44.9352569,48.2203979 45.2648468,46.1959381 C45.2659912,46.1894531 45.2675171,46.1833496 45.2686615,46.1772461 L45.2713318,46.1585541 C45.2717133,46.1566467 45.2720947,46.1551209 45.2724762,46.1532135 C45.2724762,46.1516876 45.2728576,46.1501617 45.2728576,46.1486358 L46.755249,36.4062805 L49.337799,39.915802 C49.6586151,40.3518219 50.2720185,40.4449005 50.7076568,40.1244659 C51.1432953,39.8036499 51.2363739,39.190628 50.9159394,38.7549896 L46.9318695,33.3400269 Z M40.8508605,47.6867218 C39.661438,47.5059052 38.8412781,46.3912506 39.0224762,45.2022095 C39.2032929,44.0131684 40.3175659,43.1930084 41.5069885,43.3738251 C42.6960297,43.5546417 43.5161896,44.6692963 43.3357544,45.857956 L43.3353729,45.8587188 C43.1541748,47.04776 42.0402832,47.8683014 40.8508605,47.6867218 Z" id="Shape" fill="#000000"></path>
                    <path d="M2.38690186,5.35189824 L5.56187441,3.3983917 L3.54351807,11.8723603 C3.54313662,11.8735047 3.54275508,11.874649 3.54237363,11.875412 C3.54237363,11.8765564 3.54199219,11.8777008 3.54199219,11.8788452 L3.53741455,11.8967743 C3.53588867,11.9028778 3.53550723,11.9089813 3.53398135,11.9154663 C3.06858828,13.9643402 4.34269717,16.0181732 6.39157109,16.5064545 C6.68988037,16.5774078 6.98818965,16.6113586 7.28230283,16.6113586 C9.02104189,16.6113586 10.6018524,15.421173 11.0218506,13.657257 C11.513565,11.5954132 10.23526,9.5179291 8.17341611,9.02659609 C7.50698848,8.86828613 6.83979795,8.89498906 6.2244873,9.07237246 L8.01586914,1.55207822 C8.10780332,1.16679385 7.95826719,0.763961816 7.63745117,0.53164668 C7.31663516,0.299331641 6.8871002,0.282928516 6.54949951,0.490829492 L1.3603668,3.68334961 C0.899551367,3.96678164 0.755737305,4.5702667 1.03916934,5.03108213 C1.32298281,5.49151611 1.92608643,5.63533018 2.38690186,5.35189824 Z M7.71908574,10.9324188 C8.73036191,11.1735077 9.3571167,12.1920318 9.11640928,13.2033081 C8.87532041,14.2145844 7.85641484,14.8413391 6.84552002,14.6006317 C5.8346252,14.3595429 5.20825195,13.3421631 5.44781494,12.3312684 L5.44857793,12.3282166 C5.69042969,11.3177032 6.70819092,10.69133 7.71908574,10.9324188 Z" id="Shape" fill="#000000"></path>
                    <path d="M16.5431977,42.0165558 C16.1605835,41.6343231 15.5403137,41.6343231 15.1576996,42.0165558 C14.7750854,42.3991699 14.7750854,43.0194396 15.1576996,43.4020538 L16.2658691,44.5102234 L15.4659271,45.3101654 L6.73828125,36.5825195 L7.53822324,35.782959 L9.61608887,37.8608246 C9.99870303,38.2430572 10.6189728,38.2430572 11.0015869,37.8608246 C11.3842011,37.4782104 11.3842011,36.8579406 11.0015869,36.4753266 L8.23097227,33.7047119 C7.8483582,33.3224793 7.22846982,33.3224793 6.84547422,33.7047119 L4.66041563,35.890152 C4.47654727,36.0736389 4.37355039,36.3227387 4.37355039,36.5825195 C4.37355039,36.8423004 4.47654727,37.0914002 4.66041563,37.2752686 L14.7731781,47.3880311 C14.9570465,47.5718994 15.2061463,47.6748963 15.4659271,47.6748963 C15.725708,47.6748963 15.9748077,47.5718994 16.1586762,47.3880311 L18.3437348,45.2029725 C18.7263488,44.8203583 18.7263488,44.2000885 18.3437348,43.8174744 L16.5431977,42.0165558 Z" id="Shape" fill="#000000"></path>
                    <path d="M12.1749878,40.312912 C12.3340606,40.7004853 12.7414703,40.9507294 13.1595611,40.9144897 C13.5684967,40.8793945 13.9186859,40.5883331 14.0254975,40.1919861 C14.1273498,39.8150939 13.9865875,39.3985291 13.6760712,39.1616363 C13.3361816,38.9026184 12.8574371,38.8953705 12.5091553,39.1425629 C12.1437072,39.4023438 12.0029449,39.8993988 12.1749878,40.312912 Z" id="Shape" fill="#000000"></path>
                    <path d="M49.6788025,9.15637207 L49.3083954,8.7855835 L49.3553162,8.75315859 C49.7005463,8.51245117 49.8538971,8.07795713 49.7356415,7.67436221 L48.6534119,3.97715762 C48.5595703,3.65672305 48.3089447,3.40609746 47.9885102,3.31225586 L44.291687,2.23040771 C43.8835145,2.11100771 43.4440613,2.26855469 43.2052612,2.62103271 L43.1804657,2.65765381 L42.8096771,2.28686523 C42.427063,1.90463262 41.8071747,1.90425107 41.4241791,2.28686523 C41.0415649,2.66947939 41.0415649,3.28936768 41.4241791,3.67198184 L42.061615,4.30941777 L41.7194366,4.81448359 L41.0007477,4.09579473 C40.6181336,3.71318057 39.9978638,3.71318057 39.6152496,4.09579473 C39.2326355,4.47840879 39.2326355,5.09867861 39.6152496,5.48129277 L40.6005859,6.466629 L40.2584076,6.97131348 L39.1918183,5.90472412 C38.8092041,5.52249141 38.1893158,5.52249141 37.8063202,5.90472412 C37.4240875,6.28733828 37.4240875,6.90760801 37.8063202,7.29022217 L39.1395568,8.62345889 L38.3499146,9.78884883 L35.6452941,12.4938507 C35.6449127,12.4938507 35.6445312,12.4942322 35.6441498,12.4946137 L32.8746796,15.2644653 L29.9236298,18.2155151 L28.9276123,17.2191162 C26.4472961,14.7391815 22.4117279,14.7391815 19.9317932,17.2191162 C19.9161529,17.2347564 19.9008941,17.2507782 19.8863983,17.2675629 L18.881607,18.418457 C17.9203033,19.5193787 17.0295715,20.6431885 16.1991119,21.7002411 C14.9158478,23.3336944 12.9592896,24.4243164 10.8306885,24.6924896 C8.04939268,25.0430604 5.56144717,26.2465973 3.635025,28.1726379 C1.15356445,30.6540985 -0.114059473,34.0446015 0.065612793,37.7196808 C0.243377734,41.3585205 1.82342529,44.8440094 4.51393125,47.5348969 C7.20481875,50.2254028 10.6903076,51.8050689 14.3291474,51.9832153 C14.5587921,51.9942779 14.7865295,52 15.0138855,52 C18.4234619,52 21.5496063,50.7403869 23.8761902,48.4138031 C25.8171082,46.4725037 27.0233154,43.9631958 27.3639679,41.1571045 C27.6203155,39.0445252 28.7212372,37.1062774 30.3844452,35.8401795 C31.1820984,35.2328797 32.0346832,34.5702667 32.8674316,33.8405151 L34.7827911,32.1612854 C34.7991943,32.147171 34.8144531,32.1326752 34.8297119,32.1174164 C36.0313416,30.9157867 36.6928101,29.318573 36.6928101,27.6195068 C36.6928101,25.9204406 36.0313416,24.323227 34.8297119,23.1215973 L33.833313,22.1251983 L34.0137481,21.9451446 L42.2645568,13.6943359 L43.4116363,12.8951568 L44.6758271,14.1593476 C44.8669434,14.3504639 45.1175689,14.4462128 45.3681945,14.4462128 C45.6192017,14.4462128 45.8698272,14.3504639 46.0609436,14.1593476 C46.4435577,13.7767334 46.4435577,13.1564637 46.0609436,12.7738495 L45.0443268,11.7572326 L45.5432892,11.4093322 L46.484375,12.3504181 C46.6758729,12.5415344 46.9264984,12.6372833 47.177124,12.6372833 C47.4277496,12.6372833 47.6783752,12.5415344 47.869873,12.3504181 C48.2521057,11.9678039 48.2521057,11.3475342 47.869873,10.96492 L47.1759796,10.2714081 L47.6753234,9.92350771 L48.2933045,10.5414887 C48.4844208,10.732605 48.7350464,10.8283539 48.985672,10.8283539 C49.2366791,10.8283539 49.4873047,10.732605 49.678421,10.5414887 C50.0614166,10.1588745 50.0614166,9.53898623 49.6788025,9.15637207 Z M46.9234467,5.04183965 L47.6573944,7.54847715 L45.123291,9.31430059 C45.1148986,9.31964111 45.1072693,9.32536318 45.0992584,9.33108516 L41.7461396,11.6675873 L40.37323,10.2950592 L41.2208557,9.04421992 C41.2216187,9.04269414 41.2227631,9.04116816 41.223526,9.04002383 L42.6807403,6.88853457 C42.6822662,6.88662715 42.6837921,6.88433838 42.6849365,6.88243105 L44.1429139,4.73017881 C44.1436768,4.72903438 44.1444396,4.72789004 44.1452026,4.72674561 L44.4267273,4.3113251 L46.9234467,5.04183965 Z M39.1082764,11.8011017 L40.2477265,12.9401703 L38.8622284,14.3256684 L37.7231598,13.1862183 L39.1082764,11.8011017 Z M33.5670471,17.342331 L34.7064972,18.4817811 L33.3209991,19.8668976 L32.1819306,18.727829 L33.5670471,17.342331 Z M25.9475708,31.6520233 C24.8779297,32.9532166 23.0487823,33.4380646 21.4756012,32.8300019 C20.0386047,32.2745819 19.0402984,30.887558 18.9620972,29.3513794 C18.8842773,27.8174896 19.7280884,26.3442535 21.0956573,25.6412049 C21.8917847,25.2322693 22.8214264,25.1079102 23.6980438,25.2879639 C24.5441437,25.4622955 25.3177643,25.9181519 25.8831024,26.571228 C26.9802094,27.8377075 27.1457672,29.7240753 26.2905121,31.1641235 C26.1890411,31.3354034 26.0742187,31.498291 25.9475708,31.6520233 Z M29.165268,24.0230103 L27.6046753,25.5832215 C27.2792816,25.1544494 26.8939972,24.7695465 26.4652252,24.4441528 L28.0258179,22.8835602 L29.165268,24.0230103 Z M30.5503846,22.6375122 L29.4113159,21.4984436 L30.7964325,20.1129455 L31.9358826,21.2523956 L31.7554474,21.4324493 L30.5503846,22.6375122 Z M33.4445953,24.5070953 C34.2758179,25.3383179 34.733963,26.4438172 34.733963,27.6195068 C34.733963,28.7848969 34.2838287,29.8812408 33.4659576,30.7101746 L31.5757752,32.3672791 C30.7880401,33.0577393 29.9671173,33.6955566 29.1976929,34.2814941 C27.1160126,35.8661193 25.7389068,38.2861633 25.4192353,40.9209747 C25.1319885,43.2879943 24.1191864,45.3998107 22.4906922,47.0286865 C20.4051972,49.1141815 17.539978,50.1773377 14.4248963,50.0262756 C11.2731934,49.8721619 8.24546816,48.4954376 5.8994293,46.1493988 C3.55339053,43.8037414 2.17666621,40.7756348 2.02255254,37.6239318 C1.87034609,34.5080871 2.93464658,31.643631 5.02052305,29.5581359 C6.63604736,27.9422303 8.73031621,26.9317169 11.0759735,26.6360779 C13.7115479,26.3038178 16.1403656,24.9457855 17.7394867,22.9102631 C18.5539246,21.8738098 19.4271088,20.7728882 20.3575135,19.7066803 L21.3390351,18.5821075 C23.0571747,16.8883819 25.8331299,16.8956299 27.5421143,18.6042328 L28.5381317,19.6006317 L27.3330688,20.8056945 L24.6334076,23.5057373 C22.6570129,22.8930969 20.5219269,23.3539123 18.9670562,24.7470398 C18.9529419,24.7600098 18.9384461,24.7725982 18.9243316,24.7855683 C18.8568115,24.8473663 18.7900543,24.9099273 18.7252045,24.9751587 C16.4234161,27.2769471 16.4234161,31.0218354 18.7252045,33.3240051 C19.8402404,34.4390411 21.3226318,35.052826 22.8992462,35.052826 C24.4762421,35.052826 25.9586334,34.4386597 27.0736694,33.3240051 C27.1389008,33.2587738 27.2014618,33.1920166 27.2632599,33.1248779 C27.2762299,33.110382 27.2891998,33.0958862 27.3017883,33.0817719 C28.6952973,31.5265197 29.1557312,29.3914337 28.5434723,27.415802 L31.2431336,24.7157593 L32.4481964,23.5106964 L33.4445953,24.5070953 Z M36.0919952,17.096283 L34.9525451,15.9568329 L36.3376617,14.5717163 L37.4771118,15.7111664 L36.0919952,17.096283 Z" id="Shape" fill="#000000"></path>
                </g>
            </g>
        </g>
    </g>
</svg>