<?xml version="1.0" encoding="UTF-8"?>
<svg width="39px" height="48px" viewBox="0 0 39 48" version="1.1" xmlns="http://www.w3.org/2000/svg" xmlns:xlink="http://www.w3.org/1999/xlink">
    <!-- Generator: sketchtool 51.3 (57544) - http://www.bohemiancoding.com/sketch -->
    <title>32701A52-F329-4E45-8D9D-3093ACD2C2B0</title>
    <desc>Created with sketchtool.</desc>
    <defs></defs>
    <g id="Styles" stroke="none" stroke-width="1" fill="none" fill-rule="evenodd">
        <g transform="translate(-834.000000, -2937.000000)" fill-rule="nonzero" id="Group-4">
            <g transform="translate(814.000000, 2522.000000)">
                <g id="ball" transform="translate(11.000000, 409.000000)">
                    <path d="M45.5486413,30.9598463 C45.5486413,23.7801445 34.8034753,17.9598463 21.5486413,17.9598463 C8.29380731,17.9598463 -2.45135869,23.7801445 -2.45135869,30.9598463" id="Oval-3" fill="#28A08A" transform="translate(21.548641, 24.459846) rotate(-57.000000) translate(-21.548641, -24.459846) "></path>
                    <path d="M48.6792349,31.9954357 C48.7785076,31.8445297 48.8763541,31.6930532 48.9724889,31.5410061 C48.9964513,31.5036362 49.0195578,31.4662663 49.0429497,31.4288964 C49.100003,31.3378963 49.1579122,31.2466111 49.2138244,31.1553258 C49.2323667,31.1250875 49.249768,31.0948492 49.2683103,31.0640405 C49.2885642,31.0306642 49.3082477,30.997288 49.3285015,30.9641971 C49.4072351,30.8326893 49.4848276,30.7017519 49.560138,30.5710999 C49.5698371,30.5542691 49.5792509,30.5374384 49.5892352,30.5203224 C51.922145,26.4666847 52.6595591,22.7405329 51.6865149,20.0307859 C51.6862296,20.0293596 51.6859443,20.0285038 51.6853738,20.0273628 C51.6480039,19.923811 51.6086371,19.8216856 51.5661324,19.7209865 C51.5595712,19.7050116 51.5530102,19.6884661 51.546449,19.6724911 C51.5085086,19.5849144 51.4682859,19.4987638 51.4272075,19.4134692 C51.4163675,19.3920742 51.4069537,19.3701087 51.3961135,19.3487137 C51.3450508,19.2468735 51.2914207,19.1461744 51.2349379,19.0480427 C51.1870131,18.9650301 51.1370915,18.8834439 51.0848877,18.8029987 C51.0517968,18.7513655 51.0164237,18.7017291 50.9816212,18.651237 C50.9622231,18.6238514 50.9445366,18.59561 50.9248532,18.5685096 C50.8729347,18.4960519 50.8184488,18.42445 50.763107,18.3537039 C50.7605396,18.3502807 50.7585427,18.3471428 50.7556901,18.3440048 C49.1507805,16.3089133 46.0773186,15.0545963 42.0616214,14.7892983 C42.0550602,14.7890131 42.0484991,14.7887278 42.041938,14.787872 C41.9104301,14.779314 41.7774959,14.7718971 41.6437058,14.7656212 C41.6177466,14.7644801 41.5917874,14.7630538 41.5658281,14.7619127 C41.4445898,14.7562074 41.3224957,14.7519284 41.1995458,14.7482199 C41.1807183,14.7476494 41.1621759,14.7467936 41.1430631,14.7459378 C41.1256618,14.7456526 41.10769,14.7456526 41.0902888,14.7453672 C40.9747558,14.7419441 40.858367,14.7399472 40.741693,14.7385208 C40.6946241,14.7382356 40.6475551,14.7373798 40.6007713,14.7373798 C40.5417212,14.7370945 40.4832416,14.7356682 40.4239061,14.7356682 C40.3896741,14.7356682 40.354301,14.7370945 40.3197838,14.7370945 C40.1235204,14.7379503 39.9266865,14.739662 39.7287115,14.7447967 C39.7258589,14.7447967 39.7230062,14.7447967 39.7198682,14.7447967 C39.5013541,14.7505021 39.2811283,14.7596306 39.0600467,14.7704707 C39.0329463,14.7716118 39.0055608,14.7730381 38.9784605,14.7744645 C38.4230465,14.8029911 37.8610714,14.8472074 37.2936762,14.9079692 L36.1680144,15.0189379 L36.1839893,15.0466087 C32.5822138,15.5583769 28.8118458,16.6923115 25.1992302,18.3753842 C24.7433742,18.5879077 24.5459697,19.1299142 24.7584934,19.5860554 C24.9707317,20.0419113 25.5127381,20.2396011 25.9691646,20.0270775 C29.6696423,18.3026412 33.5315809,17.1832552 37.1701558,16.7550702 L41.2237935,23.7760506 L38.8130059,25.167866 L38.1012658,23.9352293 C37.8496608,23.499342 37.2928204,23.3501476 36.8566478,23.6017527 C36.4210459,23.8536431 36.2721367,24.4104834 36.5237418,24.8463707 L37.2351966,26.0784369 L35.5786537,27.0346503 L34.8674842,25.8022988 C34.6155938,25.3666969 34.0584682,25.2175024 33.6228662,25.4691075 C33.1872642,25.7204274 33.0377845,26.2778382 33.2893896,26.7134402 L34.0008444,27.9457917 L32.344872,28.9020052 L31.633132,27.6696537 C31.3815269,27.2340517 30.8244013,27.084572 30.388514,27.3361771 C29.952912,27.5877822 29.8037176,28.1451931 30.0553227,28.5807951 L30.7667775,29.8131466 L29.1105199,30.7690748 L28.3990651,29.5370086 C28.14746,29.1014066 27.5900491,28.9519269 27.1544471,29.203532 C26.7188451,29.4551371 26.5693654,30.0122627 26.8209705,30.44815 L27.5324253,31.6802162 L25.8764529,32.6364297 L25.1652834,31.4040782 C24.9136784,30.9684761 24.3562675,30.8192817 23.9206654,31.0708869 C23.4847781,31.3222067 23.3355838,31.8793322 23.5871889,32.3149343 L24.2986437,33.547571 L22.642386,34.5037845 L21.9309313,33.271433 C21.6793261,32.835831 21.1222006,32.6863514 20.6863133,32.9382417 C20.2507112,33.1895615 20.1015169,33.7466871 20.3528367,34.1822891 L21.0645768,35.4149259 L19.4083191,36.3711394 L18.6968643,35.1387879 C18.4452593,34.7031859 17.8884189,34.5537062 17.4522464,34.8053112 C17.0166444,35.0569164 16.8677352,35.6137567 17.1187698,36.049644 L17.8307951,37.2822807 L15.4200075,38.6740963 L11.3663697,31.6531159 C13.5563611,28.7160114 16.4569514,25.9312394 19.8005607,23.5883451 C20.2127708,23.2996554 20.3126141,22.7316897 20.0239244,22.3197648 C19.7355199,21.9075546 19.1672689,21.8074261 18.755344,22.0961158 C15.4910388,24.3830978 12.6241099,27.0814341 10.3802033,29.9449398 L10.3642283,29.9169836 L9.70840051,30.8318334 C9.19520604,31.5350155 8.72080774,32.2464703 8.28691733,32.9624894 C8.26723389,32.9947245 8.24840633,33.0269596 8.22872288,33.0591947 C8.15883259,33.1764393 8.08922756,33.2936838 8.02104883,33.4114989 C7.99537488,33.45543 7.96998617,33.4990758 7.94516796,33.543292 C7.88183875,33.6539755 7.81965068,33.7649442 7.75831835,33.8756276 C7.73521178,33.9172765 7.71210521,33.9589254 7.68928389,34.0005743 C7.67302371,34.0299568 7.65619296,34.0596245 7.64021804,34.0892922 C7.58601736,34.1891355 7.53409888,34.2886936 7.48218033,34.3885368 C7.47162549,34.4085055 7.46078539,34.4281889 7.45051573,34.4487281 C7.3695001,34.6041983 7.29076646,34.7596686 7.21460034,34.9139979 C7.21460034,34.9148536 7.21431509,34.9154242 7.21374452,34.9159947 C7.14328367,35.0591985 7.07539026,35.202117 7.00920842,35.3447503 C6.98125226,35.4049416 6.954152,35.4654181 6.92676641,35.5256093 C6.89110803,35.6040576 6.85544973,35.6827912 6.8209325,35.760669 C6.78384781,35.8451079 6.74790426,35.9289762 6.71196064,36.0134151 C6.69256251,36.0596283 6.67316439,36.1058415 6.65405151,36.1517694 C6.60926468,36.2596002 6.56533367,36.367431 6.52282897,36.4746912 C6.52168783,36.4775438 6.52054684,36.4803964 6.5194057,36.4835344 C6.23185701,37.2106788 5.99850901,37.9252716 5.82620801,38.6193251 C5.3860417,40.3922567 5.34182537,42.0060096 5.68414523,43.3795681 C5.68500105,43.3824207 5.68614211,43.3852734 5.68642736,43.3884113 C5.72579418,43.5461638 5.77115158,43.7002077 5.82050268,43.8511137 C5.83191334,43.8853457 5.84218294,43.9198629 5.85416417,43.9535244 C5.87185066,44.0051576 5.89096353,44.0553645 5.91036166,44.1058567 C5.9311861,44.1620542 5.95258111,44.2179665 5.97540243,44.2733082 C5.99308892,44.3166687 6.01134598,44.3594587 6.03017361,44.4019634 C6.05841495,44.4667189 6.08779742,44.5306186 6.11803571,44.5939478 C6.13458113,44.6276092 6.14998556,44.6618412 6.16681631,44.6949322 C6.21559684,44.7913522 6.266089,44.8866313 6.31943386,44.9796282 C7.91150648,47.7364441 11.8245078,49.2920026 17.1139202,49.2920026 C17.1196256,49.2920026 17.1256162,49.2917174 17.1313215,49.2917174 L17.1407353,49.2917174 C17.362958,49.2911469 17.5880333,49.2888648 17.8153907,49.2831593 C17.8185287,49.2831593 17.8216666,49.2825889 17.8250897,49.2825889 C17.8316509,49.2825889 17.8387825,49.2823036 17.8459142,49.2820184 C18.0595789,49.276313 18.2743846,49.267755 18.4894756,49.2574854 C18.5288423,49.2552033 18.5684944,49.2532064 18.6078611,49.2509242 C18.8218111,49.2395136 19.0360463,49.2263914 19.2514225,49.2104164 C19.2531341,49.2104164 19.2554163,49.2104164 19.2571279,49.2101311 C19.5908897,49.1855982 19.9263632,49.1553599 20.263263,49.1197016 L21.3863574,49.008733 L21.3715235,48.9827737 C26.1303402,48.3129678 31.090555,46.5711303 35.6590989,43.9338409 C40.2276427,41.2959812 44.2162397,37.8707857 47.1755948,34.0844427 L47.190714,34.1109725 L47.8505355,33.1901321 C48.1372284,32.7964642 48.4130812,32.3990879 48.677238,31.9985737 C48.6778085,31.9977179 48.6786644,31.9965768 48.6792349,31.9954357 Z M39.7991723,16.5659384 C39.8128651,16.5656532 39.8262727,16.5656532 39.8396802,16.5653679 C40.0034232,16.5613741 40.1651694,16.5599478 40.3263449,16.5593773 C40.4133512,16.5588068 40.5003575,16.5588068 40.5870785,16.5596625 C40.6255895,16.5596625 40.6638153,16.5599478 40.7017557,16.5602331 C40.8138655,16.5616594 40.9248341,16.5639415 41.0358029,16.5667942 C41.0697496,16.56765 41.103411,16.5685058 41.1373578,16.5696469 C41.2292136,16.571929 41.3202136,16.5756374 41.4109283,16.5790607 C41.4622764,16.5816281 41.5136243,16.5839102 41.5644018,16.5861924 C41.6337216,16.5896156 41.7033266,16.593324 41.7717906,16.5973178 C41.8530915,16.6021673 41.9335367,16.6070168 42.0136966,16.6127221 C42.0496402,16.6150043 42.0855838,16.6175716 42.1209568,16.6204243 C45.687074,16.8888602 48.3768523,18.014522 49.5290439,19.7532216 C49.5313261,19.75693 49.5338935,19.7597827 49.5356051,19.7629207 C49.578395,19.8273909 49.6186177,19.892717 49.6568434,19.9588988 C49.6990628,20.0319271 49.7387149,20.1063816 49.7760848,20.1828331 C49.7775111,20.1851152 49.7786522,20.1873973 49.7797933,20.1899647 C50.9456776,22.5622414 50.0020159,26.5642458 47.3359147,30.7182974 L43.2574588,23.6539565 L43.2568882,23.6533859 L39.1781471,16.5884745 C39.3866769,16.5784901 39.5937804,16.5710732 39.7991723,16.5659384 Z M18.3599645,47.4394817 C18.1562843,47.449466 17.9543155,47.4568829 17.7537731,47.4620177 C17.7432183,47.4620177 17.7323781,47.4620177 17.7218233,47.462303 C17.5441022,47.4665819 17.368378,47.4682936 17.1935096,47.4691494 C17.1344594,47.4691494 17.0759798,47.4691494 17.0172148,47.4688641 C16.9324907,47.4682936 16.8480518,47.4677231 16.7644687,47.4665819 C16.7159734,47.4660114 16.6683339,47.4648704 16.6204091,47.4637293 C16.5171426,47.4617324 16.4135909,47.459165 16.3114654,47.4554566 C16.2920673,47.454886 16.2729544,47.453745 16.2532711,47.4534597 C12.4141537,47.3099706 9.46706504,46.2211082 8.1554094,44.4595872 C8.14599562,44.4470355 8.13743759,44.4333427 8.12773856,44.4205057 C8.09150969,44.3702988 8.05556614,44.3200919 8.0216194,44.2690292 C7.97825889,44.2031326 7.93660993,44.1366655 7.89752843,44.0684868 C7.85702062,43.9985965 7.81850962,43.9261388 7.78228074,43.85254 C7.77629017,43.8408441 7.77087008,43.8282924 7.76516475,43.8165964 C7.7326444,43.749844 7.70155029,43.6822359 7.67216789,43.6126308 C7.67131207,43.6103487 7.67017101,43.607496 7.66902994,43.6052139 C6.67116758,41.2089748 7.63765058,37.3304908 10.2187424,33.3093735 L14.2971983,40.3734291 L14.2971983,40.3737144 C14.2974836,40.3739997 14.2974836,40.3739997 14.2974836,40.3739997 L18.3762248,47.4389111 C18.3708047,47.4391963 18.3650994,47.4394817 18.3599645,47.4394817 Z M34.7482428,42.3557464 C30.1414732,45.0152865 25.131622,46.7214658 20.3853571,47.2740271 L16.3308636,40.2516204 L18.7416512,38.8598048 L19.453106,40.0921563 C19.6219838,40.3845545 19.9277895,40.547727 20.2430091,40.547727 C20.3973383,40.547727 20.5539496,40.5086455 20.697724,40.4256329 C21.133326,40.1740278 21.2825204,39.6171875 21.0312005,39.1813002 L20.3194605,37.9486634 L21.9757181,36.9927352 L22.6871729,38.2248014 C22.8560507,38.5171997 23.1621417,38.6803721 23.4767907,38.6803721 C23.6316904,38.6803721 23.7883018,38.6412906 23.9317908,38.5582781 C24.3673929,38.306673 24.5168726,37.7495474 24.2649822,37.3139454 L23.5538127,36.0818791 L25.209785,35.1253804 L25.9215251,36.3580171 C26.0901176,36.6501301 26.3962086,36.8135878 26.7111429,36.8135878 C26.8654721,36.8135878 27.0220834,36.774221 27.1655725,36.6914938 C27.6014598,36.4398886 27.7506542,35.8824778 27.4990491,35.4468758 L26.7875943,34.2145243 L28.4438519,33.2583108 L29.1553067,34.4906623 C29.3241845,34.7827752 29.6299903,34.946233 29.9452098,34.946233 C30.099539,34.946233 30.2564356,34.9065809 30.3999247,34.8241389 C30.8355267,34.5725337 30.9847211,34.0151229 30.7334013,33.5795209 L30.0216612,32.3471694 L31.6779189,31.3912411 L32.3893736,32.6233074 C32.5579662,32.9157056 32.8643424,33.0791634 33.1789914,33.0791634 C33.3338912,33.0791634 33.4905025,33.0395113 33.6337064,32.956784 C34.0693083,32.7054642 34.2187881,32.1480534 33.9671829,31.7121661 L33.2560134,30.4800998 L34.912271,29.5238863 L35.6237258,30.7562378 C35.7923183,31.0483508 36.0984094,31.2118085 36.4133436,31.2118085 C36.5676728,31.2118085 36.7242842,31.1724417 36.8680585,31.0897144 C37.3036605,30.8381093 37.452855,30.2806985 37.2015352,29.8450965 L36.4897951,28.612745 L38.1460527,27.6568167 L38.8575075,28.888883 C39.0261,29.180996 39.3327615,29.3447389 39.6471253,29.3447389 C39.802025,29.3447389 39.9586364,29.3053721 40.1021255,29.2223596 C40.5377274,28.9710398 40.6872071,28.4139141 40.435602,27.9783122 L39.7241472,26.7456753 L42.1349349,25.3538599 L46.1891431,32.3762666 C43.3370481,36.2105343 39.354727,39.695921 34.7482428,42.3557464 Z" id="Shape" fill="#000000" transform="translate(28.780971, 32.013835) rotate(-22.000000) translate(-28.780971, -32.013835) "></path>
                    <path d="M18.3511289,24.7940185 C18.8529128,24.7940185 19.261985,24.3849463 19.261985,23.8831625 C19.261985,23.3810933 18.8529128,22.9717358 18.3511289,22.9717358 C17.849345,22.9717358 17.4397022,23.3810933 17.4397022,23.8831625 C17.4397022,24.3849463 17.849345,24.7940185 18.3511289,24.7940185 Z" id="Shape" fill="#000000" transform="translate(18.350844, 23.882877) rotate(-22.000000) translate(-18.350844, -23.882877) "></path>
                </g>
            </g>
        </g>
    </g>
</svg>