<?xml version="1.0" encoding="UTF-8"?>
<svg width="16px" height="20px" viewBox="0 0 16 20" version="1.1" xmlns="http://www.w3.org/2000/svg" xmlns:xlink="http://www.w3.org/1999/xlink">
    <!-- Generator: sketchtool 51.3 (57544) - http://www.bohemiancoding.com/sketch -->
    <title>82C638A9-FF10-4561-B6D4-03F2442589D1</title>
    <desc>Created with sketchtool.</desc>
    <defs></defs>
    <g id="Design---desktop" stroke="none" stroke-width="1" fill="none" fill-rule="evenodd">
        <g id="My-activities---created-by-me" transform="translate(-804.000000, -454.000000)" fill="#CECECE" fill-rule="nonzero">
            <g id="Group-2" transform="translate(804.000000, 454.000000)">
                <path d="M15.8007812,3.828125 C15.8007812,2.92343141 15.0648498,2.1875 14.1601562,2.1875 L10.1757812,2.1875 L10.1757812,1.4453125 C10.1757812,0.648345938 9.52743531,0 8.73046875,0 L7.08984375,0 C6.29287719,0 5.64453125,0.648345938 5.64453125,1.4453125 L5.64453125,2.1875 L1.66015625,2.1875 C0.755462656,2.1875 0.01953125,2.92343141 0.01953125,3.828125 C0.01953125,4.49310305 0.417327891,5.06637574 0.987243672,5.32379148 L0.987243672,17.9968262 C0.987243672,19.1014099 1.88583375,20 2.99026488,20 L12.829895,20 C13.9343262,20 14.8329162,19.1014099 14.8329162,17.9968262 L14.8329162,10.716095 C14.8329162,10.5003357 14.6580505,10.32547 14.4422913,10.32547 C14.2266846,10.32547 14.0516662,10.5003357 14.0516662,10.716095 L14.0516662,17.9968262 C14.0516662,18.6706543 13.5035705,19.21875 12.829895,19.21875 L2.9904175,19.21875 C2.31658937,19.21875 1.76864625,18.6706543 1.76864625,17.9968262 L1.76864625,5.47103883 L3.53668211,5.47103883 L7.73925781,9.67376711 C7.81555176,9.75006102 7.91549684,9.78805543 8.01544188,9.78805543 C8.11538695,9.78805543 8.21533203,9.75006102 8.2914734,9.67391969 L10.2864075,7.68096922 L10.6201172,8.01467895 C10.6964111,8.09097289 10.7963562,8.12911988 10.8964539,8.12911988 C10.9963989,8.12911988 11.096344,8.09097289 11.1726379,8.01467895 L13.7161255,5.47119141 L14.0516662,5.47119141 L14.0516662,7.73849488 C14.0516662,7.95425414 14.2266846,8.12911988 14.4422913,8.12911988 C14.6580505,8.12911988 14.8329162,7.95425414 14.8329162,7.73849488 L14.8329162,5.32379148 C15.4029846,5.06637574 15.8007812,4.49310305 15.8007812,3.828125 Z M6.42578125,1.4453125 C6.42578125,1.07910156 6.72363281,0.78125 7.08984375,0.78125 L8.73046875,0.78125 C9.09667969,0.78125 9.39453125,1.07910156 9.39453125,1.4453125 L9.39453125,2.1875 L6.42578125,2.1875 L6.42578125,1.4453125 Z M8.01559449,8.84521484 L4.64141844,5.47119141 L8.07662965,5.47119141 L9.7340393,7.12844848 L8.01559449,8.84521484 Z M10.8964539,7.18597414 L9.18151855,5.47103883 L12.6112366,5.47103883 L10.8964539,7.18597414 Z M14.1601562,4.6875 L1.66015625,4.6875 C1.18621828,4.6875 0.80078125,4.30206297 0.80078125,3.828125 C0.80078125,3.35418703 1.18621828,2.96875 1.66015625,2.96875 L14.1601562,2.96875 C14.6339416,2.96875 15.0195312,3.35418703 15.0195312,3.828125 C15.0195312,4.30206297 14.6339416,4.6875 14.1601562,4.6875 Z" id="Shape"></path>
                <path d="M14.1659546,8.82537844 C14.0933227,8.89801023 14.0515137,8.99887086 14.0515137,9.1015625 C14.0515137,9.20425414 14.0933227,9.30511477 14.1659546,9.37774656 C14.2385864,9.45037844 14.339447,9.4921875 14.4424438,9.4921875 C14.5452881,9.4921875 14.6459961,9.45037844 14.7186279,9.37774656 C14.7914123,9.30511477 14.8327637,9.20425414 14.8327637,9.1015625 C14.8327637,8.99887086 14.7914123,8.89801023 14.7186279,8.82537844 C14.6459961,8.75274656 14.5452881,8.7109375 14.4424438,8.7109375 C14.339447,8.7109375 14.2385864,8.75274656 14.1659546,8.82537844 Z" id="Shape"></path>
                <path d="M11.1312866,9.1015625 L11.1312866,17.0736695 C11.1312866,17.2894287 11.3061523,17.4642945 11.5219116,17.4642945 C11.7375183,17.4642945 11.9125366,17.2894287 11.9125366,17.0736695 L11.9125366,9.1015625 C11.9125366,8.8858032 11.7375183,8.7109375 11.5219116,8.7109375 C11.3061523,8.7109375 11.1312866,8.8858032 11.1312866,9.1015625 Z" id="Shape"></path>
                <path d="M7.51953125,13.216095 L7.51953125,17.0736695 C7.51953125,17.2894287 7.69439695,17.4642945 7.91015625,17.4642945 C8.12591555,17.4642945 8.30078125,17.2894287 8.30078125,17.0736695 L8.30078125,13.216095 C8.30078125,13.0003357 8.12591555,12.82547 7.91015625,12.82547 C7.69439695,12.82547 7.51953125,13.0004883 7.51953125,13.216095 Z" id="Shape"></path>
                <path d="M3.90777586,8.125 L3.90777586,17.0736695 C3.90777586,17.2894287 4.0826416,17.4642945 4.29840086,17.4642945 C4.51416016,17.4642945 4.68902586,17.2894287 4.68902586,17.0736695 L4.68902586,8.125 C4.68902586,7.9092407 4.51416016,7.734375 4.29840086,7.734375 C4.0826416,7.734375 3.90777586,7.9092407 3.90777586,8.125 Z" id="Shape"></path>
                <path d="M8.18634031,11.1430359 C8.11370852,11.0702515 8.01284789,11.0284424 7.91015625,11.0284424 C7.80746461,11.0284424 7.70660398,11.0702515 7.63397219,11.1430359 C7.56134031,11.2156677 7.51953125,11.3163757 7.51953125,11.4190674 C7.51953125,11.5222168 7.56134031,11.6226196 7.63397219,11.6957092 C7.70660398,11.7683411 7.80746461,11.8096924 7.91015625,11.8096924 C8.01284789,11.8096924 8.11370852,11.7683411 8.18634031,11.6957092 C8.25897219,11.6226196 8.30078125,11.5222168 8.30078125,11.4190674 C8.30078125,11.3163757 8.25897219,11.2156677 8.18634031,11.1430359 Z" id="Shape"></path>
            </g>
        </g>
    </g>
</svg>