<?xml version="1.0" encoding="UTF-8"?>
<svg width="200px" height="200px" viewBox="0 0 200 200" version="1.1" xmlns="http://www.w3.org/2000/svg" xmlns:xlink="http://www.w3.org/1999/xlink">
    <!-- Generator: Sketch 51.3 (57544) - http://www.bohemiancoding.com/sketch -->
    <title>008-high-five</title>
    <desc>Created with Sketch.</desc>
    <defs></defs>
    <g id="Styles" stroke="none" stroke-width="1" fill="none" fill-rule="evenodd">
        <g transform="translate(-120.000000, -3525.000000)" fill="#FEFEFE" fill-rule="nonzero" id="008-high-five">
            <g transform="translate(120.000000, 3525.000000)">
                <path d="M165.423438,193.332031 C164.696875,192.605469 163.692578,192.1875 162.661719,192.1875 C161.634375,192.1875 160.626563,192.605469 159.9,193.332031 C159.173828,194.058594 158.755469,195.066406 158.755469,196.09375 C158.755469,197.121094 159.173438,198.128906 159.9,198.855469 C160.626563,199.582031 161.634375,200 162.661719,200 C163.689063,200 164.696875,199.582031 165.423438,198.855469 C166.153906,198.128906 166.567969,197.121094 166.567969,196.09375 C166.567969,195.066406 166.153906,194.058594 165.423438,193.332031 Z" id="Shape"></path>
                <path d="M197.273047,65.5675781 C194.915625,62.1273438 191.355469,59.834375 187.248437,59.1101563 C180.599609,57.9378906 174.099219,61.2707031 171.019531,66.9789063 L171.019531,25.7609375 C171.019531,17.409375 164.224609,10.6152344 155.873437,10.6152344 C153.141797,10.6152344 150.579687,11.3457031 148.364453,12.6160156 C147.15625,5.46523437 140.923047,0 133.433594,0 C125.944141,0 119.711328,5.46523437 118.503125,12.6160156 C116.287891,11.3457031 113.725781,10.6152344 110.994141,10.6152344 C103.142969,10.6152344 96.6691406,16.6207031 95.921875,24.2789062 C93.7394531,23.0585937 91.2277344,22.3597656 88.5546875,22.3597656 C80.203125,22.3597656 73.4089844,29.1542969 73.4089844,37.5054688 C73.4089844,39.6628906 75.1582031,41.4117188 77.3152344,41.4117188 C79.4722656,41.4117188 81.2214844,39.6628906 81.2214844,37.5054688 C81.2214844,33.4617188 84.5113281,30.1722656 88.5546875,30.1722656 C92.3414062,30.1722656 95.4667969,33.0578125 95.8484375,36.7457031 L95.8484375,47.1597656 C95.8484375,49.3171875 97.5976562,51.0660156 99.7546875,51.0660156 C101.911719,51.0660156 103.660937,49.3171875 103.660937,47.1597656 L103.660937,25.7613281 C103.660937,21.7175781 106.950781,18.428125 110.994141,18.428125 C114.780859,18.428125 117.90625,21.3136719 118.287891,25.0015625 L118.287891,55.3917969 C118.287891,55.5710938 118.327734,56.8695313 118.327734,56.8695313 C118.327734,59.0269531 120.076953,60.7757813 122.233984,60.7757813 C124.391016,60.7757813 126.140234,59.0269531 126.140234,56.8695313 L126.140234,25.7609375 C126.140234,25.4113281 126.123828,25.0652344 126.100391,24.7214844 L126.100391,15.1457031 C126.100391,11.1019531 129.390234,7.8125 133.433594,7.8125 C137.476953,7.8125 140.766797,11.1023438 140.766797,15.1457031 L140.766797,24.7214844 C140.743359,25.0652344 140.726953,25.4113281 140.726953,25.7609375 L140.726953,80.6957031 C140.726953,82.853125 142.476172,84.6019531 144.633203,84.6019531 C146.790234,84.6019531 148.539453,82.853125 148.539453,80.6957031 L148.579297,25.0007813 C148.960938,21.3128906 152.086328,18.4273438 155.873438,18.4273438 C159.917188,18.4273438 163.206641,21.7171875 163.206641,25.7605469 L163.206641,83.5429688 C163.206641,86.4 165.265625,88.7226562 168.101953,89.0652344 C170.935938,89.409375 173.490625,87.6425781 174.171484,84.8671875 L177.211719,72.4640625 C178.159766,68.5988281 181.968359,66.1113281 185.891406,66.8035156 C187.914062,67.1601563 189.667188,68.2894531 190.828516,69.9835937 C191.989453,71.6777344 192.410156,73.7207031 192.0125,75.7359375 L186.127344,105.580859 C184.151953,115.598828 179.285937,124.704687 172.05625,131.914453 L159.905078,144.03125 C159.169922,144.764062 158.757031,145.759375 158.757031,146.797266 L158.757031,181.640625 C158.757031,183.798047 160.50625,185.546875 162.663281,185.546875 C164.820312,185.546875 166.569531,183.798047 166.569531,181.640625 L166.569531,148.41875 L177.573047,137.446875 C185.907031,129.136328 191.515625,118.639844 193.792969,107.092578 L199.678125,77.2476562 C200.484766,73.1558594 199.630469,69.0078125 197.273047,65.5675781 Z" id="Shape"></path>
                <path d="M115.85625,120.703125 C113.699219,120.703125 111.95,122.451953 111.95,124.609375 L111.95,136.065625 C111.95,148.912891 106.939844,160.984375 97.8421875,170.05625 L90.4402344,177.437109 C89.7050781,178.169922 89.2921875,179.165234 89.2921875,180.203125 L89.2921875,196.09375 C89.2921875,198.251172 91.0414063,200 93.1984375,200 C95.3554688,200 97.1046875,198.251172 97.1046875,196.09375 L97.1046875,181.824609 L103.358594,175.588672 C113.937109,165.040625 119.762891,151.004297 119.762891,136.066016 L119.762891,124.609375 C119.7625,122.451953 118.013672,120.703125 115.85625,120.703125 Z" id="Shape"></path>
                <path d="M118.618359,107.980469 C117.891797,107.253906 116.883984,106.835938 115.856641,106.835938 C114.829297,106.835938 113.821484,107.253906 113.095312,107.980469 C112.36875,108.707031 111.950391,109.714844 111.950391,110.742188 C111.950391,111.769531 112.368359,112.777344 113.095312,113.503906 C113.821484,114.230469 114.829297,114.648438 115.856641,114.648438 C116.883984,114.648438 117.891797,114.230469 118.618359,113.503906 C119.344922,112.777344 119.762891,111.769531 119.762891,110.742188 C119.762891,109.714844 119.345312,108.707031 118.618359,107.980469 Z" id="Shape"></path>
                <path d="M105.262891,62.696875 C102.822656,62.696875 100.523047,63.3054687 98.5035156,64.3746094 C97.6347656,57.2039062 91.5152344,51.628125 84.1136719,51.628125 C81.6125,51.628125 79.2574219,52.2648437 77.2015625,53.3847656 C75.9171875,46.6949219 70.0238281,41.6234375 62.9648438,41.6234375 C55.9058594,41.6234375 50.0121094,46.6949219 48.728125,53.3847656 C46.6722656,52.2648437 44.3167969,51.628125 41.815625,51.628125 C33.8207031,51.628125 27.3164063,58.1324219 27.3164063,66.1277344 L27.3164063,104.136719 C24.2253906,99.1238281 18.28125,96.2671875 12.20625,97.3375 C8.27539063,98.0304687 4.86796875,100.225781 2.61132813,103.518359 C0.3546875,106.810937 -0.4625,110.780859 0.309375,114.696875 L5.85625,142.825391 C8.01132813,153.752734 13.31875,163.685156 21.2054688,171.549609 L31.5097656,181.824609 L31.5097656,196.09375 C31.5097656,198.251172 33.2589844,200 35.4160156,200 C37.5730469,200 39.3222656,198.251172 39.3222656,196.09375 L39.3222656,180.203125 C39.3222656,179.165234 38.9089844,178.169922 38.1742188,177.437109 L26.7222656,166.017187 C19.9394531,159.253516 15.3746094,150.711328 13.5214844,141.313672 L7.97460938,113.185156 C7.61210938,111.345703 7.99609375,109.480859 9.05585938,107.934375 C10.1160156,106.387891 11.7167969,105.356641 13.5628906,105.03125 C17.1410156,104.4 20.6207031,106.669922 21.4859375,110.198437 L24.3515625,121.888281 C25.0199219,124.615625 27.5246094,126.352734 30.3167969,126.014453 C33.1050781,125.677734 35.1285156,123.394922 35.1285156,120.586719 L35.1285156,66.1273437 C35.1285156,62.4402344 38.1285156,59.4402344 41.815625,59.4402344 C45.265625,59.4402344 48.1132813,62.0671875 48.4648438,65.4261719 L48.4648438,94.053125 C48.4648438,96.2105469 50.2140625,97.959375 52.3710938,97.959375 C52.3773438,97.959375 52.3835938,97.9585937 52.3898438,97.9585937 C52.3960938,97.9585937 52.4023438,97.959375 52.4085938,97.959375 C54.565625,97.959375 56.3148438,96.2105469 56.3148438,94.053125 L56.3148438,66.1269531 C56.3148438,65.7949219 56.2996094,65.4664063 56.2773438,65.1398438 L56.2773438,56.1222656 C56.2773438,52.4351563 59.2773438,49.4351563 62.9644531,49.4351563 C66.6515625,49.4351563 69.6515625,52.4347656 69.6515625,56.1222656 L69.6515625,65.1398438 C69.6292969,65.4664063 69.6140625,65.7949219 69.6140625,66.1269531 L69.6140625,94.053125 C69.6140625,96.2105469 71.3632813,97.959375 73.5203125,97.959375 C73.5265625,97.959375 73.5328125,97.9585937 73.5390625,97.9585937 C73.5453125,97.9585937 73.5515625,97.959375 73.5578125,97.959375 C75.7148438,97.959375 77.4640625,96.2105469 77.4640625,94.053125 L77.4640625,65.4261719 C77.815625,62.0671875 80.6628906,59.4402344 84.1132813,59.4402344 C87.8003906,59.4402344 90.8003906,62.4398438 90.8003906,66.1273437 L90.7632813,94.0535156 C90.7632813,96.2109375 92.5125,97.9597656 94.6695313,97.9597656 C94.6757812,97.9597656 94.6820313,97.9589844 94.6882813,97.9589844 C94.6945313,97.9589844 94.7007813,97.9597656 94.7070313,97.9597656 C96.8640625,97.9597656 98.6132813,96.2109375 98.6132813,94.0535156 L98.6132813,76.4953125 C98.9648438,73.1363281 101.8125,70.509375 105.262891,70.509375 C108.95,70.509375 111.95,73.5089844 111.95,77.1964844 L111.95,95.4429687 C111.95,97.6003906 113.699219,99.3492187 115.85625,99.3492187 C118.013281,99.3492187 119.7625,97.6003906 119.7625,95.4429687 L119.7625,77.1964844 C119.7625,69.2015625 113.258203,62.696875 105.262891,62.696875 Z" id="Shape"></path>
                <path d="M58.1546875,21.7511719 L37.5578125,1.15429687 C36.0324219,-0.37109375 33.5597656,-0.37109375 32.0332031,1.15429687 C30.5078125,2.6796875 30.5078125,5.153125 32.0332031,6.67851562 L52.6304688,27.2753906 C53.3933594,28.0382813 54.3929688,28.4195312 55.3925781,28.4195312 C56.3921875,28.4195312 57.3917969,28.0378906 58.1546875,27.2753906 C59.6800781,25.75 59.6800781,23.2765625 58.1546875,21.7511719 Z" id="Shape"></path>
                <path d="M44.3371094,32.2191406 L34.8050781,32.2191406 C32.6480469,32.2191406 30.8988281,33.9679687 30.8988281,36.1253906 C30.8988281,38.2828125 32.6480469,40.0316406 34.8050781,40.0316406 L44.3371094,40.0316406 C46.4941406,40.0316406 48.2433594,38.2828125 48.2433594,36.1253906 C48.2433594,33.9679687 46.4941406,32.2191406 44.3371094,32.2191406 Z" id="Shape"></path>
                <path d="M66.8257813,0 C64.66875,0 62.9195313,1.74882812 62.9195313,3.90625 L62.9195313,13.7570313 C62.9195313,15.9144531 64.6683594,17.6632813 66.8257813,17.6632813 C68.9828125,17.6632813 70.7320313,15.9144531 70.7320313,13.7570313 L70.7320313,3.90625 C70.7320313,1.74882812 68.9828125,0 66.8257813,0 Z" id="Shape"></path>
            </g>
        </g>
    </g>
</svg>