<?xml version="1.0" encoding="UTF-8"?>
<svg width="17px" height="20px" viewBox="0 0 17 20" version="1.1" xmlns="http://www.w3.org/2000/svg" xmlns:xlink="http://www.w3.org/1999/xlink">
    <!-- Generator: Sketch 51.3 (57544) - http://www.bohemiancoding.com/sketch -->
    <title>Shape</title>
    <desc>Created with Sketch.</desc>
    <defs></defs>
    <g id="Styles" stroke="none" stroke-width="1" fill="none" fill-rule="evenodd">
        <g transform="translate(-277.000000, -3341.000000)" fill="#CECECE" fill-rule="nonzero" id="Shape">
            <path d="M285.090276,3341 C280.629274,3341 277,3344.2493 277,3348.24321 C277,3353.19978 284.240004,3360.47631 284.548254,3360.78366 C284.837786,3361.07237 285.343289,3361.07186 285.632298,3360.78366 C285.940548,3360.47631 293.180552,3353.19978 293.180552,3348.24321 C293.180465,3344.2493 289.551235,3341 285.090276,3341 Z M285.090276,3351.88747 C282.845835,3351.88747 281.019898,3350.25267 281.019898,3348.24321 C281.019898,3346.23376 282.845879,3344.59899 285.090276,3344.59899 C287.334673,3344.59899 289.160611,3346.2338 289.160611,3348.24325 C289.160611,3350.25271 287.334673,3351.88747 285.090276,3351.88747 Z"></path>
        </g>
    </g>
</svg>