<?xml version="1.0" encoding="UTF-8"?>
<svg width="57px" height="50px" viewBox="0 0 57 50" version="1.1" xmlns="http://www.w3.org/2000/svg" xmlns:xlink="http://www.w3.org/1999/xlink">
    <!-- Generator: sketchtool 51.3 (57544) - http://www.bohemiancoding.com/sketch -->
    <title>6A2BF0C5-A37E-40C4-9C02-0ED7A2A3EAF3</title>
    <desc>Created with sketchtool.</desc>
    <defs></defs>
    <g id="Styles" stroke="none" stroke-width="1" fill="none" fill-rule="evenodd">
        <g transform="translate(-151.000000, -2751.000000)" fill-rule="nonzero" id="Group">
            <g transform="translate(123.000000, 2522.000000)">
                <g id="006-dices" transform="translate(28.000000, 229.000000)">
                    <polygon id="Path" fill="#28A08A" points="16 37 35 27.034922 55.6881343 38.4694044 35.8440671 47.9524522"></polygon>
                    <path d="M27.5019833,17.2202677 C24.4597648,17.2202677 22.0763487,15.4236513 22.0763487,13.1303464 C22.0763487,10.8366102 24.4597648,9.04042494 27.5019833,9.04042494 C30.544633,9.04042494 32.9280491,10.8366102 32.9280491,13.1303464 C32.9280491,15.4236513 30.544633,17.2202677 27.5019833,17.2202677 Z M27.5019833,11.2479305 C25.6053394,11.2479305 24.2838542,12.2395833 24.2838542,13.1303464 C24.2838542,14.020247 25.6053394,15.0127621 27.5019833,15.0127621 C29.3986272,15.0127621 30.7205436,14.0206781 30.7205436,13.1303464 C30.7205436,12.2400145 29.3986272,11.2479305 27.5019833,11.2479305 Z" id="Shape" fill="#000000"></path>
                    <path d="M43.4542287,27.6718577 C41.7334955,27.6718577 40.3861411,25.944226 40.3861411,23.738445 C40.3861411,21.5335265 41.7334955,19.8058947 43.4542287,19.8058947 C45.1745309,19.8058947 46.5223166,21.5335265 46.5223166,23.738445 C46.5223166,25.944226 45.1745309,27.6718577 43.4542287,27.6718577 Z M43.4542287,22.0134002 C43.1114618,22.0134002 42.5932153,22.7015211 42.5932153,23.7388763 C42.5932153,24.7758002 43.1114618,25.4643522 43.4542287,25.4643522 C43.7969957,25.4643522 44.3152422,24.7762313 44.3152422,23.7388763 C44.3152422,22.7015211 43.7969957,22.0134002 43.4542287,22.0134002 Z" id="Shape" fill="#000000"></path>
                    <path d="M38.7395661,35.293788 C37.0192639,35.293788 35.6714784,33.5665873 35.6714784,31.3612375 C35.6714784,29.156319 37.0192639,27.4286872 38.7395661,27.4286872 C40.4602993,27.4286872 41.808085,29.1558879 41.808085,31.3612375 C41.808085,33.5665873 40.4602993,35.293788 38.7395661,35.293788 Z M38.7395661,29.6361927 C38.3967991,29.6361927 37.8789839,30.3243136 37.8789839,31.3612375 C37.8789839,32.3985927 38.3967991,33.0862825 38.7395661,33.0862825 C39.0823331,33.0862825 39.6005795,32.3985927 39.6005795,31.3612375 C39.6005795,30.3243136 39.0823331,29.6361927 38.7395661,29.6361927 Z" id="Shape" fill="#000000"></path>
                    <path d="M33.9460023,42.9165805 C32.2252691,42.9165805 30.8774834,41.1889487 30.8774834,38.9835989 C30.8774834,36.7782492 32.2252691,35.0510486 33.9460023,35.0510486 C35.6663045,35.0510486 37.0140901,36.7782492 37.0140901,38.9835989 C37.0140901,41.1889487 35.6663045,42.9165805 33.9460023,42.9165805 Z M33.9460023,37.2585541 C33.6032353,37.2585541 33.084989,37.9462438 33.084989,38.9835989 C33.084989,40.0209541 33.6028042,40.7090749 33.9460023,40.7090749 C34.2883382,40.7090749 34.8065845,40.0209541 34.8065845,38.9835989 C34.8065845,37.9462438 34.2883382,37.2585541 33.9460023,37.2585541 Z" id="Shape" fill="#000000"></path>
                    <path d="M13.357133,30.4217543 C11.5928532,30.4217543 10.2105753,28.625138 10.2105753,26.3318329 C10.2105753,24.0385278 11.5928532,22.2419116 13.357133,22.2419116 C15.1218439,22.2419116 16.5041219,24.0385278 16.5041219,26.3318329 C16.5041219,28.625138 15.1218439,30.4217543 13.357133,30.4217543 Z M13.357133,24.4494171 C12.983323,24.4494171 12.4180808,25.2004863 12.4180808,26.332264 C12.4180808,27.4636106 12.983323,28.2142488 13.357133,28.2142488 C13.7313742,28.2142488 14.2970475,27.4636106 14.2970475,26.332264 C14.2966163,25.2004863 13.7313742,24.4494171 13.357133,24.4494171 Z" id="Shape" fill="#000000"></path>
                    <path d="M19.4868412,40.4805636 C17.7221302,40.4805636 16.3398523,38.6839472 16.3398523,36.3906423 C16.3398523,34.0973372 17.7221302,32.3007209 19.4868412,32.3007209 C21.2515521,32.3007209 22.63383,34.0973372 22.63383,36.3906423 C22.63383,38.6839472 21.2515521,40.4805636 19.4868412,40.4805636 Z M19.4868412,34.5082264 C19.1130311,34.5082264 18.5473578,35.2592957 18.5473578,36.3906423 C18.5473578,37.52242 19.1130311,38.2730581 19.4868412,38.2730581 C19.8610823,38.2730581 20.4263245,37.52242 20.4263245,36.3906423 C20.4263245,35.2588645 19.8610823,34.5082264 19.4868412,34.5082264 Z" id="Shape" fill="#000000"></path>
                    <path d="M53.6854994,13.0221268 C53.1875172,13.0221268 52.7360996,12.6828091 52.6136521,12.1774972 C52.4705091,11.5850925 52.8348338,10.9883762 53.4272385,10.8452331 L55.2592095,10.4024386 C55.8520454,10.2584333 56.4483306,10.6231892 56.5914735,11.2160252 C56.7346164,11.8084299 56.3702918,12.4047151 55.777887,12.5478581 L53.9459161,12.9910838 C53.8588232,13.0117791 53.771299,13.0221268 53.6854994,13.0221268 Z" id="Shape" fill="#000000"></path>
                    <path d="M48.9803222,6.56689779 C48.7841474,6.56689779 48.5858168,6.51472826 48.4060258,6.40521523 C47.8860547,6.08745519 47.7217853,5.40838852 48.0395454,4.88798631 L49.0217129,3.27935298 C49.339473,2.7593819 50.0185396,2.59511247 50.5389417,2.91287252 C51.0593439,3.23020143 51.2231822,3.90969923 50.9054222,4.43010143 L49.9232547,6.03830364 C49.7154387,6.3789149 49.3524075,6.56689779 48.9803222,6.56689779 Z" id="Shape" fill="#000000"></path>
                    <path d="M54.0571536,21.8952642 C53.8609789,21.8952642 53.6626483,21.8430947 53.4828574,21.7335817 L51.874224,20.7514141 C51.3538217,20.4336541 51.1895523,19.7541563 51.5073124,19.2341853 C51.8250724,18.7137831 52.5045702,18.5495137 53.0245413,18.8672737 L54.6331746,19.8494413 C55.1535768,20.1672013 55.3178464,20.846268 55.0000862,21.3666701 C54.7922703,21.7072813 54.4288079,21.8952642 54.0571536,21.8952642 Z" id="Shape" fill="#000000"></path>
                    <path d="M3.04739238,13.0221268 C2.96159283,13.0221268 2.87406865,13.0117791 2.78697572,12.9910838 L0.955004857,12.5478581 C0.3626,12.4047151 -0.00172461369,11.8084299 0.141418322,11.2160252 C0.284561258,10.6231892 0.881277594,10.2588645 1.47368234,10.4024386 L3.30565331,10.8452331 C3.89805806,10.9883762 4.26238278,11.5850925 4.11923974,12.1774972 C3.9972234,12.6828091 3.54537461,13.0221268 3.04739238,13.0221268 Z" id="Shape" fill="#000000"></path>
                    <path d="M7.75256965,6.56689779 C7.38048433,6.56689779 7.01745309,6.3789149 6.80963709,6.03830364 L5.82746965,4.43010143 C5.50927837,3.90969923 5.6735479,3.23020143 6.19395011,2.91287252 C6.71435221,2.59511247 7.39341887,2.7593819 7.71117892,3.27935298 L8.69334647,4.88798631 C9.01110651,5.40838852 8.84683709,6.08745519 8.326866,6.40521523 C8.14750618,6.51515938 7.94874448,6.56689779 7.75256965,6.56689779 Z" id="Shape" fill="#000000"></path>
                    <path d="M2.67616932,21.8952642 C2.30408389,21.8952642 1.94105276,21.7072813 1.73280563,21.3666701 C1.41504547,20.846268 1.57931501,20.1672013 2.09971722,19.8494413 L3.70835055,18.8672737 C4.22875276,18.5495137 4.90781943,18.7137831 5.22557947,19.2341853 C5.54333951,19.7541563 5.37907009,20.4336541 4.85866788,20.7514141 L3.25003444,21.7335817 C3.07024349,21.8430947 2.87191291,21.8952642 2.67616932,21.8952642 Z" id="Shape" fill="#000000"></path>
                    <path d="M24.8421978,28.2125242 C24.7706264,28.2125242 24.6977615,28.2060568 24.6270523,28.1918288 C24.5563432,28.1776007 24.4869274,28.1564742 24.4205298,28.1288804 C24.3532699,28.1012865 24.2894592,28.0672254 24.2295288,28.0275594 C24.1687362,27.9865998 24.1126863,27.9400352 24.0618102,27.8895903 C24.010934,27.8387141 23.9648007,27.782233 23.9251345,27.7214404 C23.8854684,27.6619413 23.8509762,27.5981305 23.8233823,27.5317329 C23.7957885,27.464473 23.7750932,27.3950573 23.7604339,27.3252104 C23.7462058,27.253639 23.738445,27.180774 23.738445,27.1092025 C23.738445,27.0371999 23.7462058,26.964335 23.7604339,26.8936258 C23.7750932,26.8229167 23.7957885,26.753501 23.8233823,26.6875344 C23.8509762,26.6202746 23.8854684,26.5560327 23.9251345,26.4965336 C23.9648007,26.4357408 24.010934,26.3796909 24.0618102,26.3288148 C24.1126863,26.2779387 24.1687362,26.2313742 24.2295288,26.1917081 C24.2894592,26.1520419 24.3532699,26.1179808 24.4205298,26.090387 C24.4869274,26.0627932 24.5563432,26.0416667 24.6270523,26.0274386 C24.7680395,25.9985513 24.9150628,25.9985513 25.0573434,26.0274386 C25.1280525,26.0416667 25.1974682,26.0627932 25.2647283,26.090387 C25.3311258,26.1179808 25.3953677,26.1520419 25.4548669,26.1917081 C25.5156595,26.2313742 25.5717095,26.2779387 25.6225855,26.3288148 C25.6734616,26.3792598 25.719595,26.4357408 25.7592611,26.4965336 C25.7993585,26.5560327 25.8334195,26.6202746 25.8610134,26.6875344 C25.8886072,26.753501 25.9097338,26.8229167 25.9239618,26.8936258 C25.9381898,26.964335 25.9459506,27.0371999 25.9459506,27.1092025 C25.9459506,27.180774 25.9381898,27.253639 25.9239618,27.3252104 C25.9097338,27.3950573 25.8886072,27.464473 25.8610134,27.5317329 C25.8334195,27.5981305 25.7993585,27.6619413 25.7592611,27.7214404 C25.719595,27.782233 25.6734616,27.8387141 25.6225855,27.8895903 C25.4173565,28.0943881 25.1323641,28.2125242 24.8421978,28.2125242 Z" id="Shape" fill="#000000"></path>
                    <path d="M49.5955781,11.7036596 L28.9010762,0.248344371 C28.5682257,0.0642418322 28.1646661,0.0642418322 27.8318157,0.248344371 L7.13731369,11.7036596 C7.09894106,11.7239238 6.55223852,12.0878173 6.55223852,12.6780663 L6.55223852,37.3348682 C6.55223852,37.7362721 6.77040221,38.1057705 7.12136104,38.3002208 L27.8223302,49.7585541 C28.3664459,50.0659664 28.8971958,49.7663148 28.9105616,49.7585541 L49.6115308,38.3002208 C49.9624896,38.1057705 50.1806533,37.7362721 50.1806533,37.3348682 L50.1806533,12.6780663 C50.1806533,12.6694433 50.1806533,12.016677 49.5955781,11.7036596 Z M28.3664459,2.475683 L46.7978235,12.6780663 L28.3664459,22.8800187 L9.93506832,12.6780663 L28.3664459,2.475683 Z M8.75974404,14.5505657 L27.2626932,24.7921841 L27.2626932,46.9258762 L25.9459506,46.1972268 L23.738445,44.975338 L8.75974404,36.6842577 L8.75974404,14.5505657 Z M29.4701987,46.9258762 L29.4701987,24.7921841 L47.9731478,14.5505657 L47.9731478,36.6842577 L29.4701987,46.9258762 Z" id="Shape" fill="#000000"></path>
                </g>
            </g>
        </g>
    </g>
</svg>