<?xml version="1.0" encoding="UTF-8"?>
<svg width="50px" height="52px" viewBox="0 0 50 52" version="1.1" xmlns="http://www.w3.org/2000/svg" xmlns:xlink="http://www.w3.org/1999/xlink">
    <!-- Generator: sketchtool 51.3 (57544) - http://www.bohemiancoding.com/sketch -->
    <title>5374DCD3-BA10-41F3-9B8C-AB7B7CDCD7CD</title>
    <desc>Created with sketchtool.</desc>
    <defs></defs>
    <g id="Styles" stroke="none" stroke-width="1" fill="none" fill-rule="evenodd">
        <g transform="translate(-828.000000, -2751.000000)" fill-rule="nonzero" id="Group-4">
            <g transform="translate(814.000000, 2522.000000)">
                <g id="031-cinema" transform="translate(14.000000, 229.000000)">
                    <path d="M6.31656199,16 L18,16 C19.1045695,16 20,16.8954305 20,18 L20,49.8152512 C20,50.9198207 19.1045695,51.8152512 18,51.8152512 L9.75479028,51.8152512 C8.73339417,51.8152512 7.87610962,51.0456206 7.76636778,50.0301371 L4.32813949,18.214886 C4.20946126,17.1167105 5.00350062,16.1302557 6.10167604,16.0115775 C6.17304501,16.0038648 6.24477747,16 6.31656199,16 Z" id="Rectangle" fill="#28A08A"></path>
                    <path d="M27.4191337,45.0429459 L27.4191337,38.2736355 C27.4191337,37.7352887 26.9828216,37.2989766 26.4444749,37.2989766 L15.7342684,37.2989766 C15.1959216,37.2989766 14.7596096,37.7352887 14.7596096,38.2736355 L14.7596096,45.0429459 C14.7596096,45.5812926 15.1959216,46.0176048 15.7342684,46.0176048 L26.4444749,46.0176048 C26.9828216,46.0176048 27.4191337,45.5812926 27.4191337,45.0429459 Z M25.469816,44.068287 L16.7089273,44.068287 L16.7089273,39.2482943 L25.469816,39.2482943 L25.469816,44.068287 Z" id="Shape" fill="#000000"></path>
                    <path d="M34.2931439,46.0176048 L45.0033504,46.0176048 C45.5416971,46.0176048 45.9780093,45.5812926 45.9780093,45.0429459 L45.9780093,38.2736355 C45.9780093,37.7352887 45.5416971,37.2989766 45.0033504,37.2989766 L34.2931439,37.2989766 C33.7547972,37.2989766 33.318485,37.7352887 33.318485,38.2736355 L33.318485,45.0429459 C33.318485,45.5812926 33.7547972,46.0176048 34.2931439,46.0176048 Z M35.2678027,39.2482943 L44.0286915,39.2482943 L44.0286915,44.068287 L35.2678027,44.068287 L35.2678027,39.2482943 Z" id="Shape" fill="#000000"></path>
                    <path d="M4.08976004,30.5132949 C4.27098558,30.3309271 4.37530458,30.0804094 4.37530458,29.8241807 C4.37530458,29.5668098 4.27098558,29.316292 4.08976004,29.1339242 C3.90815361,28.9526986 3.65687437,28.8483796 3.40064571,28.8483796 C3.14403626,28.8483796 2.89275712,28.9526986 2.71153138,29.1339242 C2.53030585,29.316292 2.42598684,29.5668098 2.42598684,29.8241807 C2.42598684,30.0804094 2.53030585,30.3309271 2.71153138,30.5132949 C2.89275712,30.6945206 3.14403626,30.7988396 3.40064571,30.7988396 C3.65687437,30.7988396 3.90815361,30.6945206 4.08976004,30.5132949 Z" id="Shape" fill="#000000"></path>
                    <path d="M45.718354,30.9838724 C45.8995797,30.8026468 46.0038986,30.5513675 46.0038986,30.2947582 C46.0038986,30.0385294 45.8995797,29.7872503 45.718354,29.6056439 C45.5371285,29.4236568 45.2854684,29.3200993 45.0292398,29.3200993 C44.7730111,29.3200993 44.5213511,29.4236568 44.3401255,29.6056439 C44.1588998,29.7872503 44.0545809,30.037768 44.0545809,30.2947582 C44.0545809,30.5513675 44.1588998,30.8026468 44.3401255,30.9838724 C44.5213511,31.1650981 44.7730111,31.2694171 45.0292398,31.2694171 C45.2854684,31.2694171 45.5371285,31.1650981 45.718354,30.9838724 Z" id="Shape" fill="#000000"></path>
                    <path d="M49.9025341,16.7226334 C49.9025341,14.3845943 48.0004264,12.4828673 45.662768,12.4828673 L43.079922,12.4828673 C41.4675469,12.4828673 40.1559454,13.7944688 40.1559454,15.406844 C40.1559454,17.0188383 41.4675469,18.3308206 43.079922,18.3308206 L44.0545809,18.3308206 L44.0545809,26.5990497 C44.0545809,27.1370157 44.490893,27.5737086 45.0292398,27.5737086 C45.5675865,27.5737086 46.0038986,27.1370157 46.0038986,26.5990497 L46.0038986,17.3561617 C46.0038986,16.8178149 45.5675865,16.3815028 45.0292398,16.3815028 L43.079922,16.3815028 C42.5423367,16.3815028 42.1052632,15.9440485 42.1052632,15.406844 C42.1052632,14.8692587 42.5423367,14.4321851 43.079922,14.4321851 L45.662768,14.4321851 C46.9256365,14.4321851 47.9532164,15.4593841 47.9532164,16.7226334 L47.9532164,33.3744518 L31.6276803,33.3744518 L34.4450536,13.5949683 C34.4846491,13.3151346 34.4012701,13.0322552 34.2162372,12.8186677 C34.0376766,12.6130756 33.7818287,12.4927662 33.510371,12.4843903 C33.7551779,11.8158352 33.7871589,11.069612 33.5716678,10.3344298 C33.3192465,9.47398879 32.7679551,8.78601667 32.0449561,8.36797943 C32.2098105,7.99600994 32.302327,7.58520653 32.302327,7.15270166 C32.302327,5.69946998 31.265229,4.47391267 29.8755788,4.20245497 C29.0798611,2.87752807 27.486903,2.22915146 25.9982639,2.60530887 C25.5798459,1.13189873 24.2233187,0.0491136452 22.6177967,0.0491136452 C20.9871467,0.0491136452 19.6123446,1.16502193 19.2175317,2.67383957 C18.5466922,2.84288197 17.9523788,3.20571394 17.4970303,3.69875429 C17.326465,3.52742749 17.1380057,3.37171053 16.9312713,3.23579133 C16.1473562,2.71952671 15.2092471,2.53944327 14.2897935,2.72866413 C13.5999177,2.87067495 12.9827607,3.20761754 12.4992386,3.69837349 C12.0438901,3.20533324 11.4495766,2.84288197 10.7791179,2.67383957 C10.384305,1.16502193 9.00950292,0.0487329435 7.37923372,0.0487329435 C5.44133772,0.0487329435 3.86475088,1.62531979 3.86475088,3.56321579 C3.86475088,3.84571452 3.89825478,4.12440604 3.96335887,4.39396014 C2.89884873,4.8569231 2.15224474,5.91914903 2.15224474,7.15270166 C2.15224474,7.57987632 2.2424768,7.98611111 2.40390468,8.354654 C1.68280945,8.75708148 1.12504571,9.42068713 0.837978168,10.2662798 C0.585176023,11.0121223 0.590506238,11.7899458 0.820464815,12.4965735 C0.595074951,12.5327425 0.387579142,12.6454374 0.236811696,12.8205713 C0.0517787524,13.035301 -0.0312194932,13.320084 0.0106603314,13.6002984 L1.78522476,25.5745157 C1.86441579,26.1067709 2.36012125,26.4753137 2.89237632,26.3957419 C3.42463148,26.3165509 3.79241287,25.8208455 3.71360253,25.2885904 L2.10427329,14.4321851 L2.650996,14.4321851 L2.65518402,14.4321851 L2.65899123,14.4321851 L11.5097314,14.4321851 C11.0836988,15.0931256 10.8350847,15.879325 10.8350847,16.7226334 L10.8350847,34.3491106 L10.8350847,45.0688353 C10.8350847,46.1649458 11.1990589,47.1776773 11.8124086,47.9928119 L7.86656316,47.9928119 C7.41730624,47.9928119 7.02896569,47.6577729 6.9631,47.2134655 L4.94372865,33.5899427 C4.86491832,33.0573069 4.36959366,32.6891447 3.83695789,32.7687165 C3.30432203,32.8475268 2.93692125,33.3432322 3.01573158,33.8754873 L5.03510292,47.4993908 C5.24145653,48.8917062 6.45863791,49.9421296 7.86656316,49.9421296 L45.0292398,49.9421296 C47.7164047,49.9421296 49.9025341,47.7560002 49.9025341,45.0688353 L49.9025341,16.7226334 Z M29.6585648,33.3744518 L23.6194871,33.3744518 L23.6194871,14.4321851 L31.4807201,14.4321851 L31.4822429,14.4321851 L31.484908,14.4321851 L32.3567709,14.4321851 L29.6585648,33.3744518 Z M5.15845819,6.09542515 C5.40554951,6.09542515 5.64312261,6.00176657 5.82358674,5.83348558 L5.95074932,5.71469903 C6.30406316,5.38499025 6.36269493,4.84702427 6.08895283,4.4491655 C5.9092501,4.18798733 5.81406862,3.88188353 5.81406862,3.56321579 C5.81406862,2.70010965 6.51612758,1.99805068 7.37923372,1.99805068 C8.24195906,1.99805068 8.94401803,2.70010965 8.94401803,3.56321579 C8.94401803,4.10118177 9.38071092,4.53787466 9.9186769,4.53787466 C9.97388216,4.53787466 10.0279453,4.53292515 10.0808663,4.52416852 C10.8678271,4.60564386 11.483842,5.27305673 11.483842,6.08514561 L11.4842227,6.13121345 C11.483842,6.16776316 11.483842,6.20431287 11.4846034,6.24124327 C11.4956444,6.77197554 11.9292915,7.19534298 12.4588816,7.19534298 L12.4714455,7.19534298 C13.0063657,7.18887057 13.4358248,6.75179708 13.4339212,6.2168768 L13.4335404,6.14111228 C13.4384899,5.84528811 13.527199,5.55898207 13.6916727,5.30960643 C13.9216314,4.9604806 14.273803,4.7217653 14.6830836,4.63724415 C15.0923641,4.55348441 15.5100207,4.63343684 15.8595273,4.86339552 C16.2086531,5.093354 16.4473684,5.44552573 16.5315089,5.85480624 C16.6156493,6.26446764 16.5356969,6.68212417 16.3057383,7.03125 C16.0095333,7.48050682 16.1340308,8.0850999 16.5832876,8.38130487 C17.0329251,8.67750975 17.6375183,8.55301228 17.9337232,8.10337476 C18.3308206,7.50030458 18.5280366,6.80586014 18.5120462,6.09923246 C18.5124269,6.09276014 18.5131883,6.08704922 18.5131883,6.0809576 C18.5131883,5.27267602 19.1292032,4.60564386 19.9161641,4.52416852 C19.9687043,4.53292515 20.0227674,4.53787466 20.0779727,4.53787466 C20.6163195,4.53787466 21.0526316,4.10118177 21.0526316,3.56321579 C21.0526316,2.70010965 21.7550712,1.99805068 22.6177967,1.99805068 C23.4809027,1.99805068 24.1829618,2.70010965 24.1829618,3.56321579 C24.1829618,3.88188353 24.0877802,4.18798733 23.9080775,4.4491655 C23.6339547,4.84664347 23.6929673,5.38537096 24.0462811,5.71469903 L24.1738244,5.83348558 C24.3542885,6.00176657 24.5918616,6.09542515 24.8385721,6.09542515 C25.4214638,6.09542515 25.8954678,6.56980994 25.8954678,7.15270166 C25.8954678,7.73559337 25.4214638,8.20959737 24.8385721,8.20959737 C24.3002253,8.20959737 23.8639133,8.64629025 23.8639133,9.18425624 C23.8639133,9.72260292 24.3002253,10.1589151 24.8385721,10.1589151 C26.4962536,10.1589151 27.8447856,8.81038314 27.8447856,7.15270166 C27.8447856,6.03565117 27.2314358,5.0609923 26.3253076,4.54244337 C27.0867598,4.26375185 27.9529118,4.6197308 28.2887123,5.3655732 C28.3382066,5.47598382 28.40293,5.57801842 28.4813596,5.66825049 C28.7002772,5.92143333 29.0200871,6.07791179 29.359314,6.09732885 C29.9166971,6.12930984 30.35339,6.59303421 30.35339,7.15270166 C30.35339,7.51553363 30.1694992,7.83648577 29.8900463,8.02684883 C29.8519737,8.04626589 29.8146626,8.06758655 29.7796357,8.09157222 C29.634579,8.16657524 29.4704862,8.20997807 29.2964942,8.20997807 C28.7581476,8.20997807 28.3218354,8.64629025 28.3218354,9.18463694 C28.3218354,9.72260292 28.7581476,10.1592958 29.2964942,10.1592958 C29.7442282,10.1592958 30.1691185,10.0599263 30.5517483,9.8836501 C31.3714517,9.98149669 31.6379599,10.6668037 31.7015411,10.8830561 C31.843552,11.3677205 31.7761635,12.0389406 31.1696668,12.4828673 L13.0330166,12.4828673 C13.7834278,10.7433296 13.042154,8.6954039 11.3235563,7.85019191 C10.8407955,7.61261881 10.256381,7.8117386 10.0188079,8.29449922 C9.7812348,8.77764074 9.98035458,9.36167456 10.463496,9.59962846 C11.2717776,9.99710643 11.6060551,10.9782377 11.208577,11.7865193 C11.0623782,12.0831049 10.837369,12.3214395 10.5541088,12.4828673 L3.02601121,12.4828673 C2.5481999,11.9890655 2.52916365,11.3498264 2.6841191,10.8925743 C2.75836072,10.6740375 3.06065731,9.98149669 3.90282349,9.8836501 C4.28545322,10.0599263 4.71034357,10.1592958 5.15845819,10.1592958 C5.69680497,10.1592958 6.13311706,9.72298363 6.13311706,9.18463694 C6.13311706,8.64629025 5.69680497,8.20997807 5.15845819,8.20997807 C4.98408567,8.20997807 4.81999269,8.16695604 4.67493606,8.09195302 C4.63990926,8.06796725 4.60297875,8.04664659 4.56490624,8.02684883 C4.28545322,7.83648577 4.10156248,7.51591433 4.10156248,7.15270166 C4.10156248,6.56980994 4.57556647,6.09542515 5.15845819,6.09542515 Z M21.6701694,14.4321851 L21.6701694,33.3744518 L16.6830379,33.3744518 L16.6830379,18.3308206 L17.6576968,18.3308206 C19.2700719,18.3308206 20.5816734,17.0192191 20.5816734,15.406844 C20.5816734,15.0653326 20.5222801,14.7371467 20.4141539,14.4321851 L21.6701694,14.4321851 Z M14.7337202,17.3561617 L14.7337202,33.3744518 L12.7844024,33.3744518 L12.7844024,16.7226334 C12.7844024,15.4597649 13.8119823,14.4321851 15.0748508,14.4321851 L17.6576968,14.4321851 C18.1952821,14.4321851 18.6323557,14.8696394 18.6323557,15.406844 C18.6323557,15.9444292 18.1952821,16.3815028 17.6576968,16.3815028 L15.708379,16.3815028 C15.1700323,16.3815028 14.7337202,16.8178149 14.7337202,17.3561617 Z M15.708379,47.9928119 C14.0960039,47.9928119 12.7844024,46.6812104 12.7844024,45.0688353 L12.7844024,35.3237695 L29.3943409,35.3237695 L29.3943409,47.9928119 L15.708379,47.9928119 Z M47.9532164,45.0688353 C47.9532164,46.6812104 46.6416149,47.9928119 45.0292398,47.9928119 L31.3436587,47.9928119 L31.3436587,35.3237695 L47.9532164,35.3237695 L47.9532164,45.0688353 Z" id="Shape" fill="#000000"></path>
                </g>
            </g>
        </g>
    </g>
</svg>