<?xml version="1.0" encoding="UTF-8"?>
<svg width="18px" height="18px" viewBox="0 0 18 18" version="1.1" xmlns="http://www.w3.org/2000/svg" xmlns:xlink="http://www.w3.org/1999/xlink">
    <!-- Generator: sketchtool 51.3 (57544) - http://www.bohemiancoding.com/sketch -->
    <title>31B42C74-4EAF-4DED-81AC-633F61BFDBD5</title>
    <desc>Created with sketchtool.</desc>
    <defs></defs>
    <g id="Design---desktop" stroke="none" stroke-width="1" fill="none" fill-rule="evenodd">
        <g id="My-activities---created-by-me" transform="translate(-834.000000, -455.000000)" fill="#CECECE" fill-rule="nonzero">
            <g id="design" transform="translate(834.000000, 455.000000)">
                <path d="M17.9769023,17.5227187 L15.7309102,11.6381602 C15.7132617,11.5919297 15.6860508,11.549918 15.6510703,11.5149375 L4.56553125,0.429398437 C3.99343359,-0.142664063 3.06263672,-0.142628906 2.49053906,0.429398437 L0.42975,2.4901875 C0.152613281,2.76732422 0,3.13576172 0,3.52768359 C0,3.91957031 0.152613281,4.28804297 0.42975,4.56517969 L11.5152891,15.6507187 C11.5503047,15.6856992 11.5922812,15.7129453 11.6385469,15.7305586 L17.5231055,17.9765156 C17.5638516,17.9920547 17.6062852,17.9996484 17.6483672,17.9996484 C17.7399492,17.9996484 17.8298789,17.9638242 17.8970273,17.8966758 C17.995043,17.7986602 18.026332,17.6522344 17.9769023,17.5227187 Z M2.53142578,5.67246094 L0.926894531,4.06796484 C0.782613281,3.92368359 0.703125,3.73176562 0.703125,3.52768359 C0.703125,3.32356641 0.782613281,3.13168359 0.926929687,2.98736719 L2.98771875,0.926578125 C3.28559766,0.628664062 3.77040234,0.62859375 4.06831641,0.926578125 L5.66954297,2.52780469 L2.56658203,5.63076562 C2.55346875,5.64387891 2.54200781,5.65794141 2.53142578,5.67246094 Z M3.8233125,6.96438281 L3.02206641,6.16313672 C3.03658594,6.15251953 3.05064844,6.14109375 3.06379687,6.12798047 L6.16675781,3.02501953 L6.96142969,3.81969141 L3.85846875,6.92265234 C3.84539063,6.93580078 3.83392969,6.94986328 3.8233125,6.96438281 Z M4.31398828,7.45505859 C4.32850781,7.44444141 4.34257031,7.43301562 4.35571875,7.41990234 L7.45867969,4.31694141 L14.9052656,11.7635273 L11.7638437,14.9049492 L4.31398828,7.45505859 Z M12.3960938,15.2671289 L15.2674805,12.3957422 L16.2830039,15.0565078 L15.0568594,16.2826523 L12.3960938,15.2671289 Z M15.776543,16.5573633 L16.5576797,15.7762266 L17.0398477,17.0395312 L15.776543,16.5573633 Z" id="Shape"></path>
                <path d="M10.7234648,9.07389844 L8.14341797,6.49385156 C8.00613281,6.35656641 7.78352344,6.35656641 7.64620313,6.49385156 C7.50891797,6.63113672 7.50891797,6.85374609 7.64620313,6.99103125 L10.2262852,9.57111328 C10.2949453,9.63977344 10.3849102,9.67408594 10.474875,9.67408594 C10.5648398,9.67408594 10.6548398,9.63973828 10.7234648,9.57111328 C10.86075,9.43382813 10.86075,9.21121875 10.7234648,9.07389844 Z" id="Shape"></path>
                <path d="M12.1367812,10.48725 L12.1312969,10.4817656 C11.9938008,10.3446914 11.7711562,10.3450078 11.6341172,10.4825391 C11.497043,10.6200703 11.4973594,10.8426445 11.6348906,10.9797187 L11.640375,10.9852031 C11.709,11.053582 11.7987539,11.0877891 11.8885781,11.0877891 C11.9787187,11.0877891 12.0688945,11.0533359 12.1375547,10.9844297 C12.2746289,10.8468984 12.2743125,10.6243242 12.1367812,10.48725 Z" id="Shape"></path>
                <path d="M12.5507812,17.2965234 L4.03488281,17.2965234 C3.84075,17.2965234 3.68332031,17.453918 3.68332031,17.6480859 C3.68332031,17.8422539 3.84075,17.9996484 4.03488281,17.9996484 L12.5507812,17.9996484 C12.7449141,17.9996484 12.9023438,17.8422539 12.9023438,17.6480859 C12.9023438,17.453918 12.7449141,17.2965234 12.5507812,17.2965234 Z" id="Shape"></path>
                <path d="M14.3359805,17.3995312 C14.2702734,17.3341406 14.1799219,17.2965234 14.0871094,17.2965234 C13.995,17.2965234 13.9042969,17.3341406 13.8385547,17.3995312 C13.7731641,17.4649219 13.7358984,17.555625 13.7358984,17.6480859 C13.7358984,17.7408984 13.7731641,17.83125 13.8385547,17.8966406 C13.9042969,17.9620312 13.9946133,17.9996484 14.0871094,17.9996484 C14.1799219,17.9996484 14.2702734,17.9620312 14.3359805,17.8966406 C14.4013711,17.83125 14.4390234,17.7405469 14.4390234,17.6480859 C14.4390234,17.555625 14.4014062,17.4649219 14.3359805,17.3995312 Z" id="Shape"></path>
            </g>
        </g>
    </g>
</svg>