<?xml version="1.0" encoding="UTF-8"?>
<svg width="53px" height="51px" viewBox="0 0 53 51" version="1.1" xmlns="http://www.w3.org/2000/svg" xmlns:xlink="http://www.w3.org/1999/xlink">
    <!-- Generator: sketchtool 51.3 (57544) - http://www.bohemiancoding.com/sketch -->
    <title>1A93BB50-2BFC-4CBF-8B7B-7B25182B17C6</title>
    <desc>Created with sketchtool.</desc>
    <defs></defs>
    <g id="Styles" stroke="none" stroke-width="1" fill="none" fill-rule="evenodd">
        <g transform="translate(-378.000000, -2571.000000)" fill-rule="nonzero" id="Group-2">
            <g transform="translate(360.000000, 2522.000000)">
                <g id="theatre" transform="translate(18.000000, 49.000000)">
                    <path d="M29.7828431,48.3674551 L29.401458,48.3604455 C25.7905664,48.2964034 22.4896896,47.5240747 19.5902707,46.0648068 C16.9584905,44.740314 14.5704527,42.8034385 12.4917924,40.3083452 C9.15523042,36.3030052 6.5712429,30.9922894 4.11310922,23.0889834 L4,22.7254409 L4.15325498,22.3768734 C7.45253874,14.8734324 16.3419657,11.649661 16.7188902,11.5158416 C16.74661,11.5056458 13.7274207,30.8020908 34.5120473,43.4287612 C33.4144102,44.9262632 31.6212658,46.8221604 30.0746967,48.1221197 L29.7828431,48.3674551 Z" id="Shape-Copy" fill="#28A08A"></path>
                    <path d="M32.972446,47.5628951 C32.8513713,47.5628951 32.7302967,47.5412291 32.6152758,47.4978971 C28.3649189,45.9060843 24.8024572,43.5852748 22.0260246,40.6004665 C19.5172308,37.9040069 17.5650617,34.5674449 16.2224077,30.6850913 C16.0388841,30.1536374 16.3202233,29.5737536 16.8519958,29.3899113 C17.3834498,29.206069 17.9633335,29.4880455 18.1471758,30.019818 C20.7470942,37.5395086 25.5983636,42.5918255 32.9721273,45.4546034 C48.9342246,39.2527146 50.6276763,23.3642179 50.0844336,8.51059086 C43.8146794,2.16022635 33.0807759,2.07069486 32.9714901,2.07037618 C32.8637974,2.07069486 22.129894,2.16022635 15.859821,8.51059086 C15.6613223,13.9614983 15.8215869,18.3472675 16.3622808,22.2844234 C16.4387489,22.8416853 16.0490799,23.3556153 15.4918179,23.4320835 C14.9355118,23.5088703 14.4212633,23.1188825 14.3447951,22.5616206 C13.7744698,18.4106724 13.6142052,13.7974103 13.8397864,8.04445351 C13.8493449,7.79911811 13.9474791,7.56525285 14.1153905,7.38650848 C16.9574582,4.36537773 21.1227442,2.13664861 26.1604047,0.940240131 C29.9347471,0.0442878467 32.8500969,0.0337734095 32.972446,0.0337734095 C33.0947951,0.0337734095 36.0095075,0.0442878467 39.7841685,0.940240131 C44.8221477,2.13664861 48.9867965,4.36601501 51.8295015,7.38650848 C51.9974128,7.56525285 52.095547,7.79911811 52.1051055,8.04445351 C52.5021029,18.1822237 51.6934518,25.371508 49.4832024,31.3548251 C48.1102799,35.0705419 46.1549246,38.2697798 43.6713015,40.8630073 C40.9350148,43.7203686 37.4553936,45.9526024 33.3296162,47.4978971 C33.2142766,47.5412291 33.0935206,47.5628951 32.972446,47.5628951 Z" id="Shape" fill="#000000"></path>
                    <path d="M35.6421416,17.9113989 C35.4576622,17.9113989 35.2715896,17.8616945 35.1039967,17.7568694 C34.6267078,17.4589621 34.4810996,16.830967 34.7790069,16.3539967 C36.0005863,14.3964111 38.3284054,13.1799297 40.8547232,13.1799297 C43.3804038,13.1799297 45.7082228,14.3964111 46.9298022,16.3539967 C47.2277095,16.830967 47.08242,17.4589621 46.605131,17.7568694 C46.1281607,18.0544581 45.5001657,17.9091685 45.2022584,17.4318796 C44.3493194,16.065648 42.6835874,15.2165325 40.8547232,15.2165325 C39.0252218,15.2165325 37.3594897,16.065648 36.5065507,17.4318796 C36.3137872,17.7415758 35.9817878,17.9113989 35.6421416,17.9113989 Z M30.3024316,17.9113989 C29.9627855,17.9113989 29.6307861,17.7415758 29.4377039,17.4318796 C28.5850836,16.065648 26.919033,15.2165325 25.0901688,15.2165325 C23.260986,15.2165325 21.5949352,16.065648 20.7423149,17.4318796 C20.4447263,17.9091685 19.8167312,18.0544581 19.3397609,17.7568694 C18.8624719,17.4589621 18.7171824,16.830967 19.0147711,16.3539967 C20.236669,14.3964111 22.5644882,13.1799297 25.0901688,13.1799297 C27.6161679,13.1799297 29.943987,14.3964111 31.1655664,16.3539967 C31.4634737,16.830967 31.3175469,17.4589621 30.8405766,17.7568694 C30.6726652,17.8616945 30.486274,17.9113989 30.3024316,17.9113989 Z" id="Shape" fill="#000000"></path>
                    <path d="M32.972446,37.5143378 C27.5314157,37.5143378 23.1048634,33.6823256 23.1048634,28.9715666 C23.1048634,28.5943235 23.1338576,28.213257 23.19089,27.8392002 C23.2428247,27.4998726 23.4626708,27.2089748 23.7749159,27.0665529 C24.087161,26.9238122 24.4503849,26.9483458 24.740964,27.1318694 C26.8457509,28.4595483 29.8458529,29.221044 32.9721273,29.221044 C36.0984018,29.221044 39.0985038,28.4595483 41.2036093,27.1318694 C41.4938698,26.9483458 41.8570937,26.9238122 42.1693388,27.0665529 C42.4819025,27.2089748 42.7014299,27.4995539 42.753046,27.8388816 C42.8103971,28.2126198 42.83971,28.5940049 42.83971,28.9715666 C42.83971,33.6823256 38.4131576,37.5143378 32.972446,37.5143378 Z M25.1879843,29.6820835 C25.6152503,32.9361236 28.9432096,35.477735 32.972446,35.477735 C37.0013637,35.477735 40.329323,32.9361236 40.756589,29.6814462 C38.5307275,30.7051641 35.8301259,31.2576468 32.972446,31.2576468 C30.114766,31.2576468 27.4141644,30.7051641 25.1879843,29.6820835 Z" id="Shape" fill="#000000"></path>
                    <path d="M25.7828431,50.3674551 L25.401458,50.3604455 C21.7905664,50.2964034 18.4896896,49.5240747 15.5902707,48.0648068 C12.9584905,46.740314 10.5704527,44.8034385 8.49179241,42.3083452 C5.15523042,38.3030052 2.5712429,32.9922894 0.113109217,25.0889834 L0,24.7254409 L0.153254976,24.3768734 C3.45253874,16.8734324 12.3419657,13.649661 12.7188902,13.5158416 C12.74661,13.5056458 13.4172997,13.2695503 14.522265,13 L15.0049705,14.9786144 C14.0096095,15.2214009 13.404555,15.4332815 13.3981826,15.4358304 C13.3172538,15.464506 5.24253165,18.4053451 2.17360832,24.8557555 C5.76761321,36.2791471 11.3376835,47.8624847 25.0551208,48.3146029 C26.3544428,47.1882901 27.4839417,45.9746763 28.4162163,44.7027554 L30.059008,45.9061735 C28.9613708,47.4036755 27.6212658,48.8221604 26.0746967,50.1221197 L25.7828431,50.3674551 Z" id="Shape" fill="#000000"></path>
                    <path d="M16.0742506,27.4508055 C16.635336,27.4508055 17.092552,26.9932708 17.092552,26.4325041 C17.092552,25.8717374 16.635336,25.4142027 16.0742506,25.4142027 C15.5134838,25.4142027 15.0562679,25.8717374 15.0562679,26.4325041 C15.0562679,26.9932708 15.5134838,27.4508055 16.0742506,27.4508055 Z" id="Shape" fill="#000000"></path>
                </g>
            </g>
        </g>
    </g>
</svg>