<?xml version="1.0" encoding="UTF-8"?>
<svg width="46px" height="50px" viewBox="0 0 46 50" version="1.1" xmlns="http://www.w3.org/2000/svg" xmlns:xlink="http://www.w3.org/1999/xlink">
    <!-- Generator: sketchtool 51.3 (57544) - http://www.bohemiancoding.com/sketch -->
    <title>F1F715C2-8E60-47CD-9036-21018B3A932A</title>
    <desc>Created with sketchtool.</desc>
    <defs></defs>
    <g id="Styles" stroke="none" stroke-width="1" fill="none" fill-rule="evenodd">
        <g transform="translate(-608.000000, -2571.000000)" fill-rule="nonzero" id="Group-3">
            <g transform="translate(601.000000, 2522.000000)">
                <g id="050-family" transform="translate(7.000000, 49.000000)">
                    <path d="M21.4562378,23.8915405 C22.0154725,23.1461486 22.3473511,22.2207031 22.3473511,21.2193451 C22.3473511,18.7592469 20.3457794,16.7576752 17.8856812,16.7576752 C15.4255829,16.7576752 13.4240112,18.7592469 13.4240112,21.2193451 C13.4240112,22.2233734 13.7574158,23.1507264 14.3193207,23.8972626 C11.8153534,24.5152436 9.95263672,26.7792664 9.95263672,29.4712982 L9.95263672,31.6769562 C9.95263672,33.5591278 11.3781891,35.1143799 13.206192,35.320755 L13.206192,43.1225738 C13.206192,44.6854553 14.4780121,45.9572754 16.041275,45.9572754 C17.604538,45.9572754 18.8759766,44.6854553 18.8759766,43.1225738 L18.8759766,43.095108 C19.1544494,43.1866607 19.4512329,43.2370147 19.7594604,43.2370147 C21.3227234,43.2370147 22.5945435,41.9651947 22.5945435,40.4019317 L22.5945435,35.320755 C24.4225464,35.1143799 25.8477173,33.5591278 25.8477173,31.6769562 L25.8477173,29.4712982 C25.8477173,26.7704926 23.9727936,24.5003662 21.4562378,23.8915405 Z" id="Path" fill="#28A08A"></path>
                    <path d="M16.3921356,23.4172821 L16.3921356,16.5874481 C16.3921356,13.5398865 14.4931793,10.9291076 11.8175507,9.87129209 C12.8311157,8.91036992 13.4651184,7.55310059 13.4651184,6.04934688 L13.4651184,5.26885986 C13.4651184,2.36358643 11.101532,0 8.19625859,0 C5.29098516,0 2.92701719,2.36358643 2.92701719,5.26885986 L2.92701719,6.04934688 C2.92701719,7.55310059 3.56140137,8.91036992 4.57458496,9.87129209 C1.89895625,10.9291076 0,13.5398865 0,16.5874481 L0,23.4172821 C0,25.4489898 1.41906738,27.1541596 3.31764219,27.5974273 L3.31764219,29.7161103 C3.31764219,30.2547455 3.754425,30.6915283 4.29306035,30.6915283 C4.83207705,30.6915283 5.26885986,30.2547455 5.26885986,29.7161103 L5.26885986,26.2470245 L11.1232758,26.2470245 L11.1232758,47.0729828 C11.1232758,47.6108551 10.68573,48.0484009 10.1474762,48.0484009 C9.60960391,48.0484009 9.17167666,47.6108551 9.17167666,47.0729828 L9.17167666,33.3450317 C9.17167666,32.8063965 8.73489375,32.3692322 8.19625859,32.3692322 C7.6572418,32.3692322 7.22045898,32.8063965 7.22045898,33.3450317 L7.22045898,47.0726014 C7.22045898,47.6108551 6.78253174,48.0484009 6.24465938,48.0484009 C5.70678711,48.0484009 5.26885986,47.6108551 5.26885986,47.0726014 L5.26885986,37.1479034 C5.26885986,36.6088867 4.83207705,36.1721039 4.29306035,36.1721039 C3.754425,36.1721039 3.31764219,36.6088867 3.31764219,37.1479034 L3.31764219,47.0729828 C3.31764219,48.6869813 4.63066104,50 6.24465938,50 C6.99386602,50 7.67784121,49.7169494 8.19625859,49.2523193 C8.71429443,49.716568 9.39826963,50 10.1474762,50 C11.7614746,50 13.0748749,48.6869813 13.0748749,47.0729828 L13.0748749,27.5974273 C14.9734497,27.1541596 16.3921356,25.4489898 16.3921356,23.4172821 Z M4.87861631,5.26885986 C4.87861631,3.4397125 6.36672969,1.95159912 8.19625859,1.95159912 C10.0254059,1.95159912 11.5135193,3.4397125 11.5135193,5.26885986 L11.5135193,6.04934687 C11.5135193,7.87887578 10.0254059,9.36698916 8.19625859,9.36698916 C6.36672969,9.36698916 4.87861631,7.87887578 4.87861631,6.04934687 L4.87861631,5.26885986 Z M5.26885986,24.2958068 L5.26885986,20.1000214 C5.26885986,19.5613861 4.83207705,19.1242218 4.29306035,19.1242218 C3.754425,19.1242218 3.31764219,19.5613861 3.31764219,20.1000214 L3.31764219,25.5455018 C2.51235957,25.1747131 1.95159912,24.3606567 1.95159912,23.4172821 L1.95159912,16.5874481 C1.95159912,13.6821747 4.31518555,11.3185883 7.22045898,11.3185883 L9.17167666,11.3185883 C12.0769501,11.3185883 14.440918,13.6821747 14.440918,16.5874481 L14.440918,23.4172821 C14.440918,24.3606567 13.8801574,25.1747131 13.0748749,25.5455018 L13.0748749,20.1000214 C13.0748749,19.5613861 12.6377105,19.1242218 12.0990753,19.1242218 C11.5600586,19.1242218 11.1232758,19.5613861 11.1232758,20.1000214 L11.1232758,24.2958068 L5.26885986,24.2958068 Z" id="Shape" fill="#000000"></path>
                    <path d="M4.29306035,34.3212128 C4.54978945,34.3212128 4.80155947,34.21669 4.98275762,34.0351104 C5.16433711,33.8539123 5.26885986,33.6021424 5.26885986,33.3454132 C5.26885986,33.0875396 5.16433711,32.8369141 4.98275762,32.6557159 C4.80155947,32.472992 4.54978945,32.3696137 4.29306035,32.3696137 C4.03556826,32.3696137 3.78494258,32.472992 3.60336309,32.6557159 C3.4217834,32.8369141 3.31764219,33.0879211 3.31764219,33.3454132 C3.31764219,33.6021424 3.4217834,33.8539123 3.60336309,34.0351104 C3.78494258,34.21669 4.0367127,34.3212128 4.29306035,34.3212128 Z" id="Shape" fill="#000000"></path>
                    <path d="M25.4562378,27.8915405 C26.0154725,27.1461486 26.3473511,26.2207031 26.3473511,25.2193451 C26.3473511,22.7592469 24.3457794,20.7576752 21.8856812,20.7576752 C19.4255829,20.7576752 17.4240112,22.7592469 17.4240112,25.2193451 C17.4240112,26.2233734 17.7574158,27.1507264 18.3193207,27.8972626 C15.8153534,28.5152436 13.9526367,30.7792664 13.9526367,33.4712982 L13.9526367,35.6769562 C13.9526367,37.5591278 15.3781891,39.1143799 17.206192,39.320755 L17.206192,47.1225738 C17.206192,48.6854553 18.4780121,49.9572754 20.041275,49.9572754 C21.604538,49.9572754 22.8759766,48.6854553 22.8759766,47.1225738 L22.8759766,47.095108 C23.1544494,47.1866607 23.4512329,47.2370147 23.7594604,47.2370147 C25.3227234,47.2370147 26.5945435,45.9651947 26.5945435,44.4019317 L26.5945435,39.320755 C28.4225464,39.1143799 29.8477173,37.5591278 29.8477173,35.6769562 L29.8477173,33.4712982 C29.8477173,30.7704926 27.9727936,28.5003662 25.4562378,27.8915405 Z M21.8856812,22.7092743 C23.2696533,22.7092743 24.395752,23.8353729 24.395752,25.2197266 C24.395752,26.6036987 23.2696533,27.7297974 21.8856812,27.7297974 C20.5013275,27.7297974 19.3756104,26.6036987 19.3756104,25.2197266 C19.3756104,23.8353729 20.5013275,22.7092743 21.8856812,22.7092743 Z M27.8964996,35.6769562 C27.8964996,36.4803314 27.3406982,37.1543885 26.594162,37.3405457 L26.594162,33.536911 C26.594162,32.9982758 26.1573791,32.561493 25.6187439,32.561493 C25.0797271,32.561493 24.6429443,32.9982758 24.6429443,33.536911 L24.6429443,44.4019317 C24.6429443,44.8890686 24.2465973,45.2854156 23.7594604,45.2854156 C23.2723236,45.2854156 22.8759766,44.8890686 22.8759766,44.4019317 L22.8759766,39.4741059 C22.8759766,38.9354706 22.4391938,38.4983063 21.900177,38.4983063 C21.3615418,38.4983063 20.9247589,38.9354706 20.9247589,39.4741059 L20.9247589,47.1225738 C20.9247589,47.6093292 20.5284119,48.0056763 20.041275,48.0056763 C19.5541382,48.0056763 19.1577911,47.6093292 19.1577911,47.1225738 L19.1577911,33.5372925 C19.1577911,32.9982758 18.7206269,32.561493 18.1819916,32.561493 C17.6429748,32.561493 17.206192,32.9982758 17.206192,33.5372925 L17.206192,37.3405457 C16.4596558,37.1547699 15.9042358,36.4803314 15.9042358,35.6773377 L15.9042358,33.4712982 C15.9042358,31.3812256 17.6044464,29.681015 19.694519,29.681015 L24.105835,29.681015 C26.1959076,29.681015 27.8961182,31.3812256 27.8961182,33.4712982 L27.8961182,35.6769562 L27.8964996,35.6769562 Z" id="Shape" fill="#000000"></path>
                    <path d="M43.3101654,13.2858276 L43.3101654,7.80563359 C43.3101654,4.03976445 40.2462006,0.975799609 36.47995,0.975799609 C32.7140809,0.975799609 29.650116,4.03976445 29.650116,7.80563359 L29.650116,13.3068085 C28.225708,14.5225525 27.3204804,16.3288116 27.3204804,18.3437348 L27.3204804,23.1002808 C27.3204804,25.4001617 29.0088653,27.3124695 31.21109,27.6641846 L31.21109,37.1479034 C31.21109,37.6197814 31.546402,38.0134582 31.9915771,38.1038666 L31.9915771,47.2251893 C31.9915771,48.7316132 33.2172394,49.9572754 34.7236633,49.9572754 C35.3919982,49.9572754 36.0046387,49.7158051 36.47995,49.3156434 C36.9552612,49.7158051 37.5679016,49.9572754 38.2362365,49.9572754 C39.7426605,49.9572754 40.9683228,48.7316132 40.9683228,47.2251893 L40.9683228,38.1038666 C41.4138794,38.0134582 41.7488098,37.6197814 41.7488098,37.1479034 L41.7488098,35.4888916 C41.7488098,34.9502563 41.312027,34.5134735 40.7733917,34.5134735 C40.234375,34.5134735 39.7975922,34.9502563 39.7975922,35.4888916 L39.7975922,36.1721039 L33.1626893,36.1721039 L33.1626893,19.3302154 C33.1626893,18.7911987 32.7255249,18.3544159 32.1868896,18.3544159 C31.6478729,18.3544159 31.21109,18.7911987 31.21109,19.3302154 L31.21109,25.6687164 C30.0930023,25.3494263 29.271698,24.319458 29.271698,23.1002808 L29.271698,18.3437348 C29.271698,15.7680512 31.3674927,13.6722564 33.9431763,13.6722564 L39.0411377,13.6722564 C41.6172027,13.6722564 43.712616,15.7680512 43.712616,18.3437348 L43.712616,23.1002808 C43.712616,24.3282318 42.8794861,25.3646851 41.7488098,25.6755829 L41.7488098,19.3302154 C41.7488098,18.7911987 41.312027,18.3544159 40.7733917,18.3544159 C40.234375,18.3544159 39.7975922,18.7911987 39.7975922,19.3302154 L39.7975922,28.2390595 C39.7975922,28.7776947 40.234375,29.2144775 40.7733917,29.2144775 C41.312027,29.2144775 41.7488098,28.7776947 41.7488098,28.2390595 L41.7488098,27.6687622 C43.9632416,27.3273468 45.664215,25.4085541 45.664215,23.1002808 L45.664215,18.3437348 C45.664215,16.3173676 44.7483063,14.5015717 43.3101654,13.2858276 Z M39.0171051,47.2251893 C39.0171051,47.6554871 38.6669159,48.0056763 38.2362365,48.0056763 C37.8059387,48.0056763 37.4557495,47.6554871 37.4557495,47.2251893 L37.4557495,38.123703 L39.0171051,38.123703 L39.0171051,47.2251893 Z M35.5041504,38.123703 L35.5041504,47.2251893 C35.5041504,47.6554871 35.1539611,48.0056763 34.7236633,48.0056763 C34.2933654,48.0056763 33.9431763,47.6554871 33.9431763,47.2251893 L33.9431763,38.123703 L35.5041504,38.123703 Z M31.6013336,7.80563359 C31.6013336,5.11589053 33.7898254,2.92701719 36.47995,2.92701719 C39.1700744,2.92701719 41.3585663,5.11589053 41.3585663,7.80563359 L41.3585663,12.140274 C40.8412934,11.9464874 40.2938843,11.8148804 39.7247314,11.756134 C40.0196075,11.2247467 40.1878357,10.6140137 40.1878357,9.96475215 L40.1878357,8.75778203 C40.1878357,7.51419062 39.1757965,6.50253301 37.9322052,6.50253301 L35.0276947,6.50253301 C33.7841034,6.50253301 32.7724457,7.51419062 32.7724457,8.75778203 L32.7724457,9.96475215 C32.7724457,10.6151581 32.9414367,11.2270355 33.2366943,11.7588043 C32.6671601,11.8198395 32.1189881,11.9533539 31.6013336,12.1498107 L31.6013336,7.80563359 Z M34.7236633,9.96475215 L34.7236633,8.75778203 C34.7236633,8.5903168 34.8602295,8.45375059 35.0276947,8.45375059 L37.9322052,8.45375059 C38.1000519,8.45375059 38.2362365,8.5903168 38.2362365,8.75778203 L38.2362365,9.96475215 C38.2362365,10.9329224 37.4485016,11.7210389 36.47995,11.7210389 C35.5117798,11.7210389 34.7236633,10.9329224 34.7236633,9.96475215 Z" id="Shape" fill="#000000"></path>
                    <path d="M40.7726288,30.9520722 C40.5162812,30.9520722 40.2645111,31.0562134 40.0829315,31.237793 C39.901352,31.4193726 39.7979736,31.6711426 39.7979736,31.9274902 C39.7979736,32.1842193 39.901352,32.4359894 40.0829315,32.6175689 C40.2645111,32.7987671 40.5162812,32.9032898 40.7726288,32.9032898 C41.0305023,32.9032898 41.2811279,32.7991485 41.4623261,32.6175689 C41.64505,32.4359894 41.7484283,32.1849823 41.7484283,31.9274902 C41.7484283,31.6699981 41.64505,31.4193726 41.4623261,31.237793 C41.2811279,31.0562134 41.0305023,30.9520722 40.7726288,30.9520722 Z" id="Shape" fill="#000000"></path>
                </g>
            </g>
        </g>
    </g>
</svg>