<?xml version="1.0" encoding="UTF-8"?>
<svg width="59px" height="50px" viewBox="0 0 59 50" version="1.1" xmlns="http://www.w3.org/2000/svg" xmlns:xlink="http://www.w3.org/1999/xlink">
    <!-- Generator: sketchtool 51.3 (57544) - http://www.bohemiancoding.com/sketch -->
    <title>087D936C-4F3A-4C0B-AA81-6AC93C343DF3</title>
    <desc>Created with sketchtool.</desc>
    <defs></defs>
    <g id="Styles" stroke="none" stroke-width="1" fill="none" fill-rule="evenodd">
        <g transform="translate(-602.000000, -2751.000000)" fill-rule="nonzero" id="Group-3">
            <g transform="translate(601.000000, 2522.000000)">
                <g id="speech-bubble" transform="translate(1.000000, 229.000000)">
                    <path d="M17.1304348,42.6521739 C14.5650476,42.6521739 11.6417289,42.1486074 9.6835088,41.3694803 C9.26401152,41.2021909 8.78464674,41.3121603 8.47936478,41.6454653 C7.16694978,43.080163 5.46051293,44.0805027 3.60122283,44.5403363 C4.62576424,42.5774457 4.88731315,40.2634172 4.26401152,38.070822 C4.2147588,37.8980129 4.12347152,37.7400646 3.99821674,37.611413 C1.53218413,35.0715013 0.173913043,31.8433254 0.173913043,28.5217391 C0.173913043,20.8620924 7.9388587,14.3913043 17.1304348,14.3913043 C25.8099524,14.3913043 33.4347826,20.4268852 33.4347826,28.5217391 C33.4347826,36.3134341 26.1207541,42.6521739 17.1304348,42.6521739 Z" id="Path" fill="#28A08A"></path>
                    <path d="M30.826087,10.8695652 C30.2261379,10.8695652 29.7391304,11.3565727 29.7391304,11.9565217 C29.7391304,12.5564708 30.2261379,13.0434783 30.826087,13.0434783 C31.426036,13.0434783 31.9130435,12.5564708 31.9130435,11.9565217 C31.9130435,11.3565727 31.426036,10.8695652 30.826087,10.8695652 Z" id="Shape" fill="#000000"></path>
                    <path d="M12.7826087,30.4347826 C13.3825577,30.4347826 13.8695652,29.9477751 13.8695652,29.3478261 C13.8695652,28.7478771 13.3825577,28.2608696 12.7826087,28.2608696 C12.1826597,28.2608696 11.6956522,28.7478771 11.6956522,29.3478261 C11.6956522,29.9477751 12.1826597,30.4347826 12.7826087,30.4347826 Z" id="Shape" fill="#000000"></path>
                    <path d="M39.5217391,0 C29.7361583,0 21.7045686,6.74677304 21.08339,15.2449898 C11.7640115,15.7124661 3,22.4324898 3,31.5217391 C3,35.3201426 4.50305707,39.0005096 7.23913043,41.91661 C7.78048576,44.1482676 7.12321674,46.5136718 5.49235739,48.1445313 C5.18155565,48.4553328 5.08857,48.9228091 5.25670859,49.329144 C5.42484717,49.7350543 5.82099185,50 6.26086957,50 C9.36081859,50 12.3482507,48.784392 14.5680197,46.6423234 C16.7304687,47.3794158 19.5518852,47.826087 22.1304348,47.826087 C31.9147418,47.826087 39.9454824,41.0810122 40.5683593,32.5844939 C42.8441746,32.4834409 45.2112772,32.0630945 47.0841542,31.4249321 C49.3039233,33.5670007 52.2913553,34.7826087 55.3913043,34.7826087 C55.8311821,34.7826087 56.2273267,34.517663 56.3954653,34.1117527 C56.5636039,33.7054178 56.4706183,33.2379415 56.1598165,32.92714 C54.5289572,31.2962805 53.8716882,28.9308763 54.4130435,26.6992187 C57.1491168,23.7831183 58.6521739,20.1027513 58.6521739,16.3043478 C58.6521739,6.86013924 49.2130604,0 39.5217391,0 Z M22.1304348,45.6521739 C19.5650476,45.6521739 16.6417289,45.1486074 14.6835088,44.3694803 C14.2640115,44.2021909 13.7846467,44.3121603 13.4793648,44.6454653 C12.1669498,46.080163 10.4605129,47.0805027 8.60122283,47.5403363 C9.62576424,45.5774457 9.88731315,43.2634172 9.26401152,41.070822 C9.2147588,40.8980129 9.12347152,40.7400646 8.99821674,40.611413 C6.53218413,38.0715013 5.17391304,34.8433254 5.17391304,31.5217391 C5.17391304,23.8620924 12.9388587,17.3913043 22.1304348,17.3913043 C30.8099524,17.3913043 38.4347826,23.4268852 38.4347826,31.5217391 C38.4347826,39.3134341 31.1207541,45.6521739 22.1304348,45.6521739 Z M52.6539572,25.3940217 C52.5287024,25.5230978 52.4374151,25.6810462 52.3881624,25.8534307 C51.7648608,28.0460259 52.0264097,30.3600543 53.0509511,32.322945 C51.191661,31.863536 49.4852241,30.8627717 48.1728091,29.428074 C47.8675272,29.0951936 47.3881624,28.9847996 46.9686651,29.152089 C45.2715693,29.8271909 42.8505435,30.2946672 40.5649626,30.4076087 C40.2473675,26.2971298 38.1970109,22.4337636 34.6915761,19.5652174 L48.8695652,19.5652174 C49.4699389,19.5652174 49.9565217,19.0786346 49.9565217,18.4782609 C49.9565217,17.8778872 49.4699389,17.3913043 48.8695652,17.3913043 L31.352157,17.3913043 C28.8848505,16.13536 26.1143852,15.4029382 23.2628227,15.2492358 C23.887398,7.94879413 30.9411515,2.17391304 39.5217391,2.17391304 C48.7133152,2.17391304 56.4782609,8.64470109 56.4782609,16.3043478 C56.4782609,19.6259341 55.1199898,22.85411 52.6539572,25.3940217 Z" id="Shape" fill="#000000"></path>
                    <path d="M30.826087,28.2608696 L17.1304348,28.2608696 C16.5300611,28.2608696 16.0434783,28.7474524 16.0434783,29.3478261 C16.0434783,29.9481998 16.5300611,30.4347826 17.1304348,30.4347826 L30.826087,30.4347826 C31.4264607,30.4347826 31.9130435,29.9481998 31.9130435,29.3478261 C31.9130435,28.7474524 31.4264607,28.2608696 30.826087,28.2608696 Z" id="Shape" fill="#000000"></path>
                    <path d="M30.826087,34.7826087 L12.7826087,34.7826087 C12.182235,34.7826087 11.6956522,35.2691915 11.6956522,35.8695652 C11.6956522,36.4699389 12.182235,36.9565217 12.7826087,36.9565217 L30.826087,36.9565217 C31.4264607,36.9565217 31.9130435,36.4699389 31.9130435,35.8695652 C31.9130435,35.2691915 31.4264607,34.7826087 30.826087,34.7826087 Z" id="Shape" fill="#000000"></path>
                    <path d="M48.8695652,10.8695652 L35.173913,10.8695652 C34.5735393,10.8695652 34.0869565,11.356148 34.0869565,11.9565217 C34.0869565,12.5568954 34.5735393,13.0434783 35.173913,13.0434783 L48.8695652,13.0434783 C49.4699389,13.0434783 49.9565217,12.5568954 49.9565217,11.9565217 C49.9565217,11.356148 49.4699389,10.8695652 48.8695652,10.8695652 Z" id="Shape" fill="#000000"></path>
                </g>
            </g>
        </g>
    </g>
</svg>