<?xml version="1.0" encoding="UTF-8"?>
<svg width="44px" height="50px" viewBox="0 0 44 50" version="1.1" xmlns="http://www.w3.org/2000/svg" xmlns:xlink="http://www.w3.org/1999/xlink">
    <!-- Generator: sketchtool 51.3 (57544) - http://www.bohemiancoding.com/sketch -->
    <title>886C6A07-1954-4A09-B45C-894F6868A0F9</title>
    <desc>Created with sketchtool.</desc>
    <defs></defs>
    <g id="Styles" stroke="none" stroke-width="1" fill="none" fill-rule="evenodd">
        <g transform="translate(-386.000000, -2938.000000)" fill-rule="nonzero" id="Group-2">
            <g transform="translate(360.000000, 2522.000000)">
                <g id="017-disco-ball" transform="translate(19.000000, 416.000000)">
                    <path d="M38.2253431,40.0019072 C38.2253431,28.6237158 29.2710381,20.0019072 18.2253431,20.0019072 C7.17964808,20.0019072 -1.77465692,28.9562122 -1.77465692,40.0019072" id="Oval-2" fill="#28A08A" transform="translate(18.225343, 30.001907) rotate(-116.000000) translate(-18.225343, -30.001907) "></path>
                    <path d="M50.2603607,27.5936127 C50.2290802,27.0553589 49.7678833,26.6452789 49.2284852,26.6761779 C48.6898498,26.7074585 48.2790069,27.1697998 48.3106689,27.7080536 C48.3179169,27.8312684 48.3221131,27.9556274 48.3270722,28.0796051 C45.4565125,28.7403106 42.5516205,29.2503357 39.6276551,29.6092987 C39.6436768,26.871109 39.476593,24.0982056 39.1248779,21.3237763 C39.11763,21.2665558 39.110382,21.2097168 39.1027527,21.1524963 C41.46138,20.8404541 43.80513,20.4158783 46.1240845,19.8833466 C46.2663727,20.1519013 46.4029389,20.4242706 46.53302,20.7008361 C46.7626648,21.1891174 47.3440246,21.3985443 47.8323059,21.1696625 C48.3205871,20.9403992 48.5303955,20.3590393 48.3011322,19.870758 C46.6173248,16.286087 43.9664917,13.2499695 40.635498,11.0912323 C38.5503846,9.7400665 36.2600402,8.7779999 33.8621216,8.23173525 C33.5584717,6.25648496 32.0440369,4.67491152 30.1027374,4.2713165 L30.1027374,0.9765625 C30.1027374,0.437164258 29.6655731,0 29.1261749,0 C28.5867768,0 28.1496124,0.437164258 28.1496124,0.9765625 L28.1496124,4.2713165 C26.2048798,4.67567441 24.6885376,6.26182559 24.3887023,8.24241641 C22.0232086,8.78677363 19.762619,9.73625186 17.7019195,11.0652924 C14.8641662,12.8952026 12.516983,15.3625488 10.8373719,18.2636261 C10.8366089,18.265152 10.8358459,18.2666778 10.8347016,18.2682037 C10.5497437,18.7614441 10.2830963,19.26651 10.0370483,19.783783 C8.68550107,22.6280213 8,25.6790161 8,28.8513184 C8,34.5005035 10.1999359,39.8113251 14.1943055,43.8056945 C18.1890564,47.8004455 23.4994965,50 29.1483002,50 C34.7974854,50 40.1083068,47.8000641 44.1026764,43.8056945 C48.0974273,39.8109436 50.2969818,34.5001221 50.2969818,28.8513184 C50.2969818,28.4332275 50.2847748,28.0101776 50.2603607,27.5936127 Z M48.3030396,30.0899506 C48.1184082,32.9734803 47.2951965,35.6853485 45.9722596,38.0855561 C43.5880737,38.6428833 41.1760406,39.0808105 38.7479858,39.3966675 C39.0813904,37.5247955 39.3213349,35.6204986 39.4655304,33.6910248 C39.5174103,32.9933166 39.5563202,32.2921753 39.5834045,31.5883637 C42.5127105,31.2358856 45.4244689,30.7365418 48.3030396,30.0899506 Z M30.1248627,48.0220795 L30.1248627,41.9746398 C32.1847992,41.9483185 34.2435913,41.8361664 36.2943726,41.6419982 C35.87323,43.4799194 35.3387909,45.3510284 34.669693,47.2362519 C33.2189637,47.6726532 31.6968994,47.9431152 30.1248627,48.0220795 Z M23.6272889,47.2362519 C22.9581909,45.3510284 22.4233703,43.479538 22.0026093,41.6419982 C24.0533905,41.8361664 26.1121826,41.947937 28.1717377,41.9746398 L28.1717377,48.0220795 C26.6000824,47.9431152 25.0780182,47.6726532 23.6272889,47.2362519 Z M9.99394229,30.0899506 C12.8725128,30.7365418 15.7842713,31.2358856 18.7131958,31.5883637 C18.7406616,32.2921753 18.7795715,32.9933166 18.8314514,33.6910248 C18.9752655,35.6204986 19.2155914,37.5247955 19.548996,39.3966675 C17.1205597,39.0808105 14.7089081,38.6428833 12.3247223,38.0855561 C11.0017853,35.6853485 10.1785736,32.9734803 9.99394229,30.0899506 Z M20.6861572,31.8016053 C23.1741027,32.0438385 25.672348,32.1800232 28.1717377,32.208252 L28.1717377,40.0119781 C25.9714203,39.983368 23.7726288,39.8574829 21.5837555,39.6339416 C21.0702973,36.9071961 20.7956391,34.2739105 20.6861572,31.8016053 Z M21.1019592,21.6300965 C21.1122589,21.5473175 21.12294,21.4653016 21.1336212,21.3832855 C23.4716492,21.6320038 25.8211212,21.7723847 28.1717377,21.8025207 L28.1717377,30.2440644 C25.6540375,30.2154541 23.1374816,30.0765991 20.631607,29.8274994 C20.5988007,26.7436981 20.8089904,23.9616395 21.1019592,21.6300965 Z M27.4145203,9.73548887 C27.6666718,9.71298223 27.9192047,9.69505313 28.1717377,9.68208311 L28.1717377,19.839859 C25.9157257,19.8104858 23.6608582,19.6784973 21.4166718,19.4438935 C22.1738892,14.7773742 23.2545929,11.4963531 23.6135559,10.4808808 C24.8434143,10.1074219 26.1159973,9.85488887 27.4145203,9.73548887 Z M30.5048065,9.70458984 C30.6291656,9.71298223 30.7527618,9.72366328 30.8767395,9.73472598 C32.1775513,9.85336309 33.4520416,10.105896 34.6830444,10.4793549 C35.041626,11.4910126 36.1219482,14.7651672 36.8803101,19.4438935 C34.6361236,19.6784973 32.3812561,19.8104858 30.1248627,19.839859 L30.1248627,9.68246465 C30.2518921,9.68894961 30.37854,9.69543457 30.5048065,9.70458984 Z M30.1248627,40.0119781 L30.1248627,32.208252 C32.6246338,32.1800232 35.122879,32.0438385 37.6108246,31.8016053 C37.5013428,34.2746734 37.2266846,36.9075775 36.7132264,39.6339416 C34.524353,39.8574829 32.3251801,39.983368 30.1248627,40.0119781 Z M37.1873932,21.5694428 C37.4845581,23.916626 37.6985626,26.720047 37.6649933,29.8274994 C35.1595001,30.0765991 32.6429443,30.2154541 30.1248627,30.2440644 L30.1248627,21.8025207 C32.4758605,21.7723847 34.8253326,21.6316223 37.1633605,21.3832855 C37.1713715,21.4450836 37.1793823,21.5068817 37.1873932,21.5694428 Z M45.0639801,18.1201935 C43.0006104,18.5749054 40.9174042,18.9403534 38.8223725,19.2153931 C38.2677154,15.7535553 37.5448303,13.0428314 37.0298462,11.3616943 C40.2517395,12.8189087 43.0521088,15.1496887 45.0639801,18.1201935 Z M29.1261749,6.12411504 C30.3007202,6.12411504 31.3108521,6.84127812 31.7419129,7.86094668 C30.3854064,7.69538877 29.0140229,7.660675 27.65065,7.75604248 C27.2687988,7.78274531 26.8873291,7.81936641 26.5077667,7.86666875 C26.9369201,6.84394834 27.9489594,6.12411504 29.1261749,6.12411504 Z M21.2663727,11.3639832 C20.7513886,13.0451202 20.0288849,15.7550812 19.4746094,19.2153931 C17.3795776,18.9403534 15.2967529,18.5749054 13.2333832,18.1201935 C15.244873,15.1519775 18.0460053,12.821579 21.2663727,11.3639832 Z M11.8009644,20.6222534 C11.9196015,20.3723907 12.044342,20.1263428 12.1728974,19.8833466 C14.4918518,20.4158783 16.8356018,20.8404541 19.1942291,21.1524963 C19.1865997,21.2097168 19.1793518,21.2665558 19.1721039,21.3237763 C18.8203888,24.0982056 18.6533051,26.871109 18.6693268,29.6092987 C15.7453613,29.2503357 12.8404693,28.7403106 9.96952822,28.0792236 C10.0709991,25.4764557 10.684784,22.9709625 11.8009644,20.6222534 Z M13.840683,40.4193878 C15.862091,40.8355713 17.9006652,41.1693573 19.9491577,41.4196015 C20.3130799,43.0953979 20.7529145,44.7422027 21.269043,46.3542938 C18.3233338,45.0229645 15.7716827,42.9683686 13.840683,40.4193878 Z M37.0279389,46.3542938 C37.5440674,44.7422027 37.983902,43.0953979 38.3478241,41.4196015 C40.3963165,41.1693573 42.4348907,40.8355713 44.4562988,40.4193878 C42.525299,42.9683686 39.973648,45.0229645 37.0279389,46.3542938 Z" id="Shape" fill="#000000"></path>
                    <path d="M48.1855469,23.0861664 C47.8448944,23.3093262 47.6823883,23.7422943 47.7808075,24.1352081 C47.8784638,24.5246887 48.2168273,24.8226166 48.6158447,24.8680115 C49.02211,24.9141693 49.4215088,24.6959687 49.6027069,24.3297577 C49.7808533,23.9688873 49.7144775,23.5244751 49.4402008,23.2303619 C49.1182403,22.8855133 48.5769348,22.8256226 48.1855469,23.0861664 Z" id="Shape" fill="#000000"></path>
                </g>
            </g>
        </g>
    </g>
</svg>