<?xml version="1.0" encoding="UTF-8"?>
<svg width="52px" height="50px" viewBox="0 0 52 50" version="1.1" xmlns="http://www.w3.org/2000/svg" xmlns:xlink="http://www.w3.org/1999/xlink">
    <!-- Generator: sketchtool 51.3 (57544) - http://www.bohemiancoding.com/sketch -->
    <title>6D770D9E-A23E-4BFD-8A28-39213AD9070B</title>
    <desc>Created with sketchtool.</desc>
    <defs></defs>
    <g id="Styles" stroke="none" stroke-width="1" fill="none" fill-rule="evenodd">
        <g transform="translate(-605.000000, -2938.000000)" fill-rule="nonzero" id="Group-3">
            <g transform="translate(601.000000, 2522.000000)">
                <g id="007-camping" transform="translate(4.000000, 416.000000)">
                    <path d="M33.7126225,22.5336447 L50.3721206,43.0309257 C51.4171269,44.3166659 51.2219734,46.2061093 49.9362332,47.2511155 C49.4014226,47.6857915 48.7332594,47.9230769 48.044082,47.9230769 L14.7250858,47.9230769 C13.0682315,47.9230769 11.7250858,46.5799312 11.7250858,44.9230769 C11.7250858,44.2338995 11.9623712,43.5657363 12.3970472,43.0309257 L29.0565453,22.5336447 C30.1015515,21.2479045 31.9909949,21.052751 33.2767351,22.0977573 C33.4366127,22.2277004 33.5826794,22.3737671 33.7126225,22.5336447 Z" id="Triangle" fill="#28A08A"></path>
                    <path d="M44.7257996,40.5963897 C44.7257996,40.5948639 44.7261811,40.593338 44.7261811,40.5918121 L44.7261811,31.7302704 C46.0933686,31.431961 47.335434,30.5065155 48.2940674,29.0508271 C49.3938446,27.3807525 49.9996186,25.1789093 49.9996186,22.8515625 C49.9996186,20.5238342 49.3938446,18.3223725 48.2940674,16.6522979 C47.1115112,14.8563385 45.4975128,13.8671875 43.7496186,13.8671875 C42.0017242,13.8671875 40.3877258,14.8563385 39.2051697,16.6522979 C38.1053925,18.3223725 37.4996186,20.5238342 37.4996186,22.8515625 C37.4996186,25.1789093 38.1053925,27.3807525 39.2051697,29.0508271 C40.1638031,30.5065155 41.4058686,31.431961 42.7730561,31.7302704 L42.7730561,38.1320953 L26.5991211,17.7227021 C26.210022,17.231369 25.6267548,16.9494629 25,16.9494629 C24.3732452,16.9494629 23.789978,17.231369 23.4008789,17.7227021 L10.19516,34.3864441 L10.19516,25.9056092 C12.3527527,25.5928039 14.333725,24.2462158 15.851593,22.0340729 C17.5186157,19.6044922 18.4368134,16.3917541 18.4368134,12.9882812 C18.4368134,9.58442686 17.5186157,6.37207031 15.851593,3.94248965 C14.1071319,1.40037539 11.7515564,0.000381469727 9.21859746,0.000381469727 C6.68563848,0.000381469727 4.33006289,1.40037539 2.5859833,3.94248965 C0.918579102,6.37207031 0.000381469727,9.58442686 0.000381469727,12.9882812 C0.000381469727,16.3917541 0.918579102,19.6044922 2.5859833,22.0340729 C4.10346982,24.2462158 6.08444219,25.5928039 8.24203496,25.9056092 L8.24203496,36.85112 L0.444030762,46.6911316 C-0.0465392578,47.3098755 -0.137710547,48.1361389 0.205993652,48.846817 C0.549697852,49.5574951 1.25350957,49.9992371 2.04315186,49.9992371 L7.03163145,49.9992371 C7.57102969,49.9992371 8.00819395,49.5620728 8.00819395,49.0226746 C8.00819395,48.4832764 7.57102969,48.0461121 7.03163145,48.0461121 L2.04315186,48.0461121 C2.02255254,48.0461121 1.98822021,48.0461121 1.9641876,47.9969024 C1.94053652,47.9473114 1.96189883,47.9206085 1.9744873,47.9042053 L11.2552643,36.1930848 L19.0254211,36.1930848 L19.0254211,48.0461121 L15.625,48.0461121 C15.0859833,48.0461121 14.6488189,48.4832764 14.6488189,49.0226746 C14.6488189,49.5620728 15.0859833,49.9992371 15.625,49.9992371 L47.9568481,49.9992371 C48.7464904,49.9992371 49.4503021,49.5574951 49.7940063,48.846817 C50.1377105,48.1361389 50.0465393,47.3098755 49.5563507,46.6911316 L44.7257996,40.5963897 Z M39.4527436,22.8515625 C39.4527436,19.0402984 41.4203644,15.8203125 43.7496186,15.8203125 C46.0788727,15.8203125 48.0464936,19.0402984 48.0464936,22.8515625 C48.0464936,26.115036 46.6030121,28.9428711 44.7261811,29.6886444 L44.7261811,22.8637695 C44.7261811,22.3243713 44.2890167,21.887207 43.7496186,21.887207 C43.2102203,21.887207 42.7730561,22.3243713 42.7730561,22.8637695 L42.7730561,29.6886444 C40.896225,28.9428711 39.4527436,26.115036 39.4527436,22.8515625 Z M4.19616699,20.9293365 C2.75001523,18.8217163 1.95350645,16.0015106 1.95350645,12.9882812 C1.95350645,9.97505186 2.75001523,7.15484619 4.19616699,5.04722598 C5.56526182,3.05213926 7.34901426,1.953125 9.21859746,1.953125 C11.088562,1.953125 12.871933,3.05213926 14.2410278,5.04722598 C15.6871796,7.15522764 16.4836884,9.97505186 16.4836884,12.9882812 C16.4836884,16.0015106 15.6871796,18.8217163 14.2410278,20.9289551 C13.1130219,22.5734711 11.7027283,23.6083984 10.19516,23.9215851 L10.19516,18.8663482 L13.9396668,15.1222229 C14.320755,14.7407531 14.320755,14.1223907 13.9396668,13.7413025 C13.5581971,13.3598328 12.940216,13.3598328 12.5583648,13.7413025 L10.19516,16.1045074 L10.19516,14.0090942 C10.19516,14.0087128 10.19516,14.0083312 10.19516,14.0079498 L10.19516,7.34062197 C10.19516,6.80122373 9.75799561,6.36405947 9.21859746,6.36405947 C8.67958066,6.36405947 8.24203496,6.80122373 8.24203496,7.34062197 L8.24203496,11.6508484 L7.13119512,10.5400086 C6.74972539,10.1585389 6.13136289,10.1585389 5.74989316,10.5400086 C5.36880488,10.9214783 5.36880488,11.5394592 5.74989316,11.9209289 L8.24203496,14.4130707 L8.24203496,23.9215851 C6.7344666,23.6083984 5.32455449,22.5734711 4.19616699,20.9293365 Z M24.9317169,18.9357758 C24.9385834,18.9266205 24.9576568,18.9025879 25,18.9025879 C25.0423432,18.9025879 25.0614166,18.9266205 25.0686646,18.9357758 L37.1967315,34.2399598 L12.8032685,34.2399598 L24.9317169,18.9357758 Z M29.0473938,36.1930848 L29.0473938,48.0461121 L25.9765625,48.0461121 L25.9765625,36.1930848 L29.0473938,36.1930848 Z M20.9785461,36.1930848 L24.0234375,36.1930848 L24.0234375,48.0461121 L20.9785461,48.0461121 L20.9785461,36.1930848 Z M48.0358124,47.9969024 C48.0117798,48.0461121 47.9774475,48.0461121 47.9568481,48.0461121 L31.0005188,48.0461121 L31.0005188,36.1930848 L38.7447357,36.1930848 L48.0255127,47.9042053 C48.0381012,47.9206085 48.0594635,47.9473114 48.0358124,47.9969024 Z" id="Shape" fill="#000000"></path>
                    <path d="M11.5715027,48.0461121 C11.3147735,48.0461121 11.0626221,48.1506348 10.8810425,48.3322144 C10.6994629,48.5137939 10.5949402,48.7659454 10.5949402,49.0226746 C10.5949402,49.2794037 10.6994629,49.5315552 10.8810425,49.7131348 C11.0630035,49.8947144 11.3147735,49.9992371 11.5715027,49.9992371 C11.8282318,49.9992371 12.0803833,49.8947144 12.2619629,49.7131348 C12.4435425,49.5315552 12.5480652,49.2794037 12.5480652,49.0226746 C12.5480652,48.7659454 12.4435425,48.5137939 12.2619629,48.3322144 C12.0803833,48.1506348 11.8282318,48.0461121 11.5715027,48.0461121 Z" id="Shape" fill="#000000"></path>
                    <path d="M28.0963897,9.80834961 C29.2037964,10.9157562 30.6758881,11.5253448 32.2422027,11.5253448 C33.8081359,11.5253448 35.2802276,10.9157562 36.3876343,9.80834961 C37.4950409,8.70094297 38.1050109,7.22885137 38.1050109,5.66253662 C38.1050109,4.09660342 37.4950409,2.62413027 36.3876343,1.51672363 C35.6967926,0.825881934 34.8388672,0.315093945 33.9065552,0.0400542969 C33.5636139,-0.0614166016 33.1924438,0.0331878906 32.9395294,0.286102344 C32.686615,0.539016699 32.5920105,0.910186719 32.6934814,1.25312803 C33.1001281,2.63023379 32.7228546,4.11529541 31.7089081,5.12924199 C30.6945801,6.14318848 29.2095185,6.52084355 27.8327941,6.11381533 C27.4890899,6.01272578 27.1186828,6.10694883 26.8657685,6.36024473 C26.612854,6.61315918 26.5182495,6.98394775 26.619339,7.32727051 C26.8947602,8.25958252 27.405548,9.11750791 28.0963897,9.80834961 Z M33.0898285,6.51054385 C34.12323,5.47714238 34.7156524,4.11720273 34.7976685,2.70385742 C34.8693848,2.76603701 34.9391937,2.83088682 35.0067139,2.89802549 C35.7452393,3.63655088 36.1518859,4.618454 36.1518859,5.66253662 C36.1518859,6.70700078 35.7452393,7.68890381 35.0067139,8.4274292 C34.2681885,9.16595459 33.2862854,9.57260137 32.2422027,9.57260137 C31.1977387,9.57260137 30.2158355,9.16595459 29.4773102,8.4274292 C29.40979,8.35990908 29.3453217,8.29048154 29.2831421,8.21838379 C30.6964874,8.13636777 32.056427,7.54394531 33.0898285,6.51054385 Z" id="Shape" fill="#000000"></path>
                </g>
            </g>
        </g>
    </g>
</svg>